<?xml version="1.0" encoding="utf-8" standalone="no"?>
<!DOCTYPE svg PUBLIC "-//W3C//DTD SVG 1.1//EN"
  "http://www.w3.org/Graphics/SVG/1.1/DTD/svg11.dtd">
<!-- Created with matplotlib (https://matplotlib.org/) -->
<svg height="576pt" version="1.1" viewBox="0 0 864 576" width="864pt" xmlns="http://www.w3.org/2000/svg" xmlns:xlink="http://www.w3.org/1999/xlink">
 <defs>
  <style type="text/css">
*{stroke-linecap:butt;stroke-linejoin:round;}
  </style>
 </defs>
 <g id="figure_1">
  <g id="patch_1">
   <path d="M 0 576 
L 864 576 
L 864 0 
L 0 0 
z
" style="fill:#ffffff;"/>
  </g>
  <g id="axes_1">
   <g id="patch_2">
    <path d="M 98.54 497.631078 
L 853.2 497.631078 
L 853.2 112.671288 
L 98.54 112.671288 
z
" style="fill:#ffffff;"/>
   </g>
   <g id="matplotlib.axis_1">
    <g id="xtick_1">
     <g id="line2d_1">
      <defs>
       <path d="M 0 0 
L 0 3.5 
" id="mc61d439a82" style="stroke:#000000;stroke-width:0.8;"/>
      </defs>
      <g>
       <use style="stroke:#000000;stroke-width:0.8;" x="131.706875" xlink:href="#mc61d439a82" y="497.631078"/>
      </g>
     </g>
     <g id="text_1">
      <!-- 0 -->
      <defs>
       <path d="M 46 36.53125 
Q 46 50.203125 43.4375 55.78125 
Q 40.875 61.375 34.8125 61.375 
Q 28.765625 61.375 26.171875 55.78125 
Q 23.578125 50.203125 23.578125 36.53125 
Q 23.578125 22.703125 26.171875 17.03125 
Q 28.765625 11.375 34.8125 11.375 
Q 40.828125 11.375 43.40625 17.03125 
Q 46 22.703125 46 36.53125 
z
M 64.796875 36.375 
Q 64.796875 18.265625 56.984375 8.421875 
Q 49.171875 -1.421875 34.8125 -1.421875 
Q 20.40625 -1.421875 12.59375 8.421875 
Q 4.78125 18.265625 4.78125 36.375 
Q 4.78125 54.546875 12.59375 64.375 
Q 20.40625 74.21875 34.8125 74.21875 
Q 49.171875 74.21875 56.984375 64.375 
Q 64.796875 54.546875 64.796875 36.375 
z
" id="DejaVuSans-Bold-48"/>
      </defs>
      <g transform="translate(130.943697 520.070313)rotate(-45)scale(0.15 -0.15)">
       <use xlink:href="#DejaVuSans-Bold-48"/>
      </g>
     </g>
    </g>
    <g id="xtick_2">
     <g id="line2d_2">
      <g>
       <use style="stroke:#000000;stroke-width:0.8;" x="245.292065" xlink:href="#mc61d439a82" y="497.631078"/>
      </g>
     </g>
     <g id="text_2">
      <!-- 100 -->
      <defs>
       <path d="M 11.71875 12.984375 
L 28.328125 12.984375 
L 28.328125 60.109375 
L 11.28125 56.59375 
L 11.28125 69.390625 
L 28.21875 72.90625 
L 46.09375 72.90625 
L 46.09375 12.984375 
L 62.703125 12.984375 
L 62.703125 0 
L 11.71875 0 
z
" id="DejaVuSans-Bold-49"/>
      </defs>
      <g transform="translate(237.149012 534.830062)rotate(-45)scale(0.15 -0.15)">
       <use xlink:href="#DejaVuSans-Bold-49"/>
       <use x="69.580078" xlink:href="#DejaVuSans-Bold-48"/>
       <use x="139.160156" xlink:href="#DejaVuSans-Bold-48"/>
      </g>
     </g>
    </g>
    <g id="xtick_3">
     <g id="line2d_3">
      <g>
       <use style="stroke:#000000;stroke-width:0.8;" x="358.877255" xlink:href="#mc61d439a82" y="497.631078"/>
      </g>
     </g>
     <g id="text_3">
      <!-- 200 -->
      <defs>
       <path d="M 28.8125 13.8125 
L 60.890625 13.8125 
L 60.890625 0 
L 7.90625 0 
L 7.90625 13.8125 
L 34.515625 37.3125 
Q 38.09375 40.53125 39.796875 43.609375 
Q 41.5 46.6875 41.5 50 
Q 41.5 55.125 38.0625 58.25 
Q 34.625 61.375 28.90625 61.375 
Q 24.515625 61.375 19.28125 59.5 
Q 14.0625 57.625 8.109375 53.90625 
L 8.109375 69.921875 
Q 14.453125 72.015625 20.65625 73.109375 
Q 26.859375 74.21875 32.8125 74.21875 
Q 45.90625 74.21875 53.15625 68.453125 
Q 60.40625 62.703125 60.40625 52.390625 
Q 60.40625 46.4375 57.328125 41.28125 
Q 54.25 36.140625 44.390625 27.484375 
z
" id="DejaVuSans-Bold-50"/>
      </defs>
      <g transform="translate(350.734202 534.830062)rotate(-45)scale(0.15 -0.15)">
       <use xlink:href="#DejaVuSans-Bold-50"/>
       <use x="69.580078" xlink:href="#DejaVuSans-Bold-48"/>
       <use x="139.160156" xlink:href="#DejaVuSans-Bold-48"/>
      </g>
     </g>
    </g>
    <g id="xtick_4">
     <g id="line2d_4">
      <g>
       <use style="stroke:#000000;stroke-width:0.8;" x="472.462444" xlink:href="#mc61d439a82" y="497.631078"/>
      </g>
     </g>
     <g id="text_4">
      <!-- 300 -->
      <defs>
       <path d="M 46.578125 39.3125 
Q 53.953125 37.40625 57.78125 32.6875 
Q 61.625 27.984375 61.625 20.703125 
Q 61.625 9.859375 53.3125 4.21875 
Q 45.015625 -1.421875 29.109375 -1.421875 
Q 23.484375 -1.421875 17.84375 -0.515625 
Q 12.203125 0.390625 6.6875 2.203125 
L 6.6875 16.703125 
Q 11.96875 14.0625 17.15625 12.71875 
Q 22.359375 11.375 27.390625 11.375 
Q 34.859375 11.375 38.84375 13.953125 
Q 42.828125 16.546875 42.828125 21.390625 
Q 42.828125 26.375 38.75 28.9375 
Q 34.671875 31.5 26.703125 31.5 
L 19.1875 31.5 
L 19.1875 43.609375 
L 27.09375 43.609375 
Q 34.1875 43.609375 37.640625 45.828125 
Q 41.109375 48.046875 41.109375 52.59375 
Q 41.109375 56.78125 37.734375 59.078125 
Q 34.375 61.375 28.21875 61.375 
Q 23.6875 61.375 19.046875 60.34375 
Q 14.40625 59.328125 9.8125 57.328125 
L 9.8125 71.09375 
Q 15.375 72.65625 20.84375 73.4375 
Q 26.3125 74.21875 31.59375 74.21875 
Q 45.796875 74.21875 52.84375 69.546875 
Q 59.90625 64.890625 59.90625 55.515625 
Q 59.90625 49.125 56.53125 45.046875 
Q 53.171875 40.96875 46.578125 39.3125 
z
" id="DejaVuSans-Bold-51"/>
      </defs>
      <g transform="translate(464.319392 534.830062)rotate(-45)scale(0.15 -0.15)">
       <use xlink:href="#DejaVuSans-Bold-51"/>
       <use x="69.580078" xlink:href="#DejaVuSans-Bold-48"/>
       <use x="139.160156" xlink:href="#DejaVuSans-Bold-48"/>
      </g>
     </g>
    </g>
    <g id="xtick_5">
     <g id="line2d_5">
      <g>
       <use style="stroke:#000000;stroke-width:0.8;" x="586.047634" xlink:href="#mc61d439a82" y="497.631078"/>
      </g>
     </g>
     <g id="text_5">
      <!-- 400 -->
      <defs>
       <path d="M 36.8125 57.421875 
L 16.21875 26.90625 
L 36.8125 26.90625 
z
M 33.6875 72.90625 
L 54.59375 72.90625 
L 54.59375 26.90625 
L 64.984375 26.90625 
L 64.984375 13.28125 
L 54.59375 13.28125 
L 54.59375 0 
L 36.8125 0 
L 36.8125 13.28125 
L 4.5 13.28125 
L 4.5 29.390625 
z
" id="DejaVuSans-Bold-52"/>
      </defs>
      <g transform="translate(577.904581 534.830062)rotate(-45)scale(0.15 -0.15)">
       <use xlink:href="#DejaVuSans-Bold-52"/>
       <use x="69.580078" xlink:href="#DejaVuSans-Bold-48"/>
       <use x="139.160156" xlink:href="#DejaVuSans-Bold-48"/>
      </g>
     </g>
    </g>
    <g id="xtick_6">
     <g id="line2d_6">
      <g>
       <use style="stroke:#000000;stroke-width:0.8;" x="699.632824" xlink:href="#mc61d439a82" y="497.631078"/>
      </g>
     </g>
     <g id="text_6">
      <!-- 500 -->
      <defs>
       <path d="M 10.59375 72.90625 
L 57.328125 72.90625 
L 57.328125 59.078125 
L 25.59375 59.078125 
L 25.59375 47.796875 
Q 27.734375 48.390625 29.90625 48.703125 
Q 32.078125 49.03125 34.421875 49.03125 
Q 47.75 49.03125 55.171875 42.359375 
Q 62.59375 35.6875 62.59375 23.78125 
Q 62.59375 11.96875 54.515625 5.265625 
Q 46.4375 -1.421875 32.078125 -1.421875 
Q 25.875 -1.421875 19.796875 -0.21875 
Q 13.71875 0.984375 7.71875 3.421875 
L 7.71875 18.21875 
Q 13.671875 14.796875 19.015625 13.078125 
Q 24.359375 11.375 29.109375 11.375 
Q 35.9375 11.375 39.859375 14.71875 
Q 43.796875 18.0625 43.796875 23.78125 
Q 43.796875 29.546875 39.859375 32.859375 
Q 35.9375 36.1875 29.109375 36.1875 
Q 25.046875 36.1875 20.453125 35.125 
Q 15.875 34.078125 10.59375 31.890625 
z
" id="DejaVuSans-Bold-53"/>
      </defs>
      <g transform="translate(691.489771 534.830062)rotate(-45)scale(0.15 -0.15)">
       <use xlink:href="#DejaVuSans-Bold-53"/>
       <use x="69.580078" xlink:href="#DejaVuSans-Bold-48"/>
       <use x="139.160156" xlink:href="#DejaVuSans-Bold-48"/>
      </g>
     </g>
    </g>
    <g id="xtick_7">
     <g id="line2d_7">
      <g>
       <use style="stroke:#000000;stroke-width:0.8;" x="813.218013" xlink:href="#mc61d439a82" y="497.631078"/>
      </g>
     </g>
     <g id="text_7">
      <!-- 600 -->
      <defs>
       <path d="M 36.1875 35.984375 
Q 31.25 35.984375 28.78125 32.78125 
Q 26.3125 29.59375 26.3125 23.1875 
Q 26.3125 16.796875 28.78125 13.59375 
Q 31.25 10.40625 36.1875 10.40625 
Q 41.15625 10.40625 43.625 13.59375 
Q 46.09375 16.796875 46.09375 23.1875 
Q 46.09375 29.59375 43.625 32.78125 
Q 41.15625 35.984375 36.1875 35.984375 
z
M 59.421875 71 
L 59.421875 57.515625 
Q 54.78125 59.71875 50.671875 60.765625 
Q 46.578125 61.8125 42.671875 61.8125 
Q 34.28125 61.8125 29.59375 57.140625 
Q 24.90625 52.484375 24.125 43.3125 
Q 27.34375 45.703125 31.09375 46.890625 
Q 34.859375 48.09375 39.3125 48.09375 
Q 50.484375 48.09375 57.34375 41.546875 
Q 64.203125 35.015625 64.203125 24.421875 
Q 64.203125 12.703125 56.53125 5.640625 
Q 48.875 -1.421875 35.984375 -1.421875 
Q 21.78125 -1.421875 13.984375 8.171875 
Q 6.203125 17.78125 6.203125 35.40625 
Q 6.203125 53.46875 15.3125 63.796875 
Q 24.421875 74.125 40.28125 74.125 
Q 45.3125 74.125 50.046875 73.34375 
Q 54.78125 72.5625 59.421875 71 
z
" id="DejaVuSans-Bold-54"/>
      </defs>
      <g transform="translate(805.074961 534.830062)rotate(-45)scale(0.15 -0.15)">
       <use xlink:href="#DejaVuSans-Bold-54"/>
       <use x="69.580078" xlink:href="#DejaVuSans-Bold-48"/>
       <use x="139.160156" xlink:href="#DejaVuSans-Bold-48"/>
      </g>
     </g>
    </g>
    <g id="text_8">
     <!-- Residue Number -->
     <defs>
      <path d="M 35.890625 40.578125 
Q 41.796875 40.578125 44.359375 42.765625 
Q 46.921875 44.96875 46.921875 50 
Q 46.921875 54.984375 44.359375 57.125 
Q 41.796875 59.28125 35.890625 59.28125 
L 27.984375 59.28125 
L 27.984375 40.578125 
z
M 27.984375 27.59375 
L 27.984375 0 
L 9.1875 0 
L 9.1875 72.90625 
L 37.890625 72.90625 
Q 52.296875 72.90625 59 68.0625 
Q 65.71875 63.234375 65.71875 52.78125 
Q 65.71875 45.5625 62.21875 40.921875 
Q 58.734375 36.28125 51.703125 34.078125 
Q 55.5625 33.203125 58.609375 30.09375 
Q 61.671875 27 64.796875 20.703125 
L 75 0 
L 54.984375 0 
L 46.09375 18.109375 
Q 43.40625 23.578125 40.640625 25.578125 
Q 37.890625 27.59375 33.296875 27.59375 
z
" id="DejaVuSans-Bold-82"/>
      <path d="M 62.984375 27.484375 
L 62.984375 22.515625 
L 22.125 22.515625 
Q 22.75 16.359375 26.5625 13.28125 
Q 30.375 10.203125 37.203125 10.203125 
Q 42.71875 10.203125 48.5 11.84375 
Q 54.296875 13.484375 60.40625 16.796875 
L 60.40625 3.328125 
Q 54.203125 0.984375 48 -0.21875 
Q 41.796875 -1.421875 35.59375 -1.421875 
Q 20.75 -1.421875 12.515625 6.125 
Q 4.296875 13.671875 4.296875 27.296875 
Q 4.296875 40.671875 12.375 48.328125 
Q 20.453125 56 34.625 56 
Q 47.515625 56 55.25 48.234375 
Q 62.984375 40.484375 62.984375 27.484375 
z
M 45.015625 33.296875 
Q 45.015625 38.28125 42.109375 41.328125 
Q 39.203125 44.390625 34.515625 44.390625 
Q 29.4375 44.390625 26.265625 41.53125 
Q 23.09375 38.671875 22.3125 33.296875 
z
" id="DejaVuSans-Bold-101"/>
      <path d="M 51.125 52.984375 
L 51.125 39.703125 
Q 45.515625 42.046875 40.28125 43.21875 
Q 35.0625 44.390625 30.421875 44.390625 
Q 25.4375 44.390625 23.015625 43.140625 
Q 20.609375 41.890625 20.609375 39.3125 
Q 20.609375 37.203125 22.4375 36.078125 
Q 24.265625 34.96875 29 34.421875 
L 32.078125 33.984375 
Q 45.515625 32.28125 50.140625 28.375 
Q 54.78125 24.46875 54.78125 16.109375 
Q 54.78125 7.375 48.328125 2.96875 
Q 41.890625 -1.421875 29.109375 -1.421875 
Q 23.6875 -1.421875 17.890625 -0.5625 
Q 12.109375 0.296875 6 2 
L 6 15.28125 
Q 11.234375 12.75 16.71875 11.46875 
Q 22.21875 10.203125 27.875 10.203125 
Q 33.015625 10.203125 35.59375 11.609375 
Q 38.1875 13.03125 38.1875 15.828125 
Q 38.1875 18.171875 36.40625 19.3125 
Q 34.625 20.453125 29.296875 21.09375 
L 26.21875 21.484375 
Q 14.546875 22.953125 9.859375 26.90625 
Q 5.171875 30.859375 5.171875 38.921875 
Q 5.171875 47.609375 11.125 51.796875 
Q 17.09375 56 29.390625 56 
Q 34.234375 56 39.546875 55.265625 
Q 44.875 54.546875 51.125 52.984375 
z
" id="DejaVuSans-Bold-115"/>
      <path d="M 8.40625 54.6875 
L 25.875 54.6875 
L 25.875 0 
L 8.40625 0 
z
M 8.40625 75.984375 
L 25.875 75.984375 
L 25.875 61.71875 
L 8.40625 61.71875 
z
" id="DejaVuSans-Bold-105"/>
      <path d="M 45.609375 46.6875 
L 45.609375 75.984375 
L 63.1875 75.984375 
L 63.1875 0 
L 45.609375 0 
L 45.609375 7.90625 
Q 42 3.078125 37.640625 0.828125 
Q 33.296875 -1.421875 27.59375 -1.421875 
Q 17.484375 -1.421875 10.984375 6.609375 
Q 4.5 14.65625 4.5 27.296875 
Q 4.5 39.9375 10.984375 47.96875 
Q 17.484375 56 27.59375 56 
Q 33.25 56 37.625 53.734375 
Q 42 51.46875 45.609375 46.6875 
z
M 34.078125 11.28125 
Q 39.703125 11.28125 42.65625 15.375 
Q 45.609375 19.484375 45.609375 27.296875 
Q 45.609375 35.109375 42.65625 39.203125 
Q 39.703125 43.3125 34.078125 43.3125 
Q 28.515625 43.3125 25.5625 39.203125 
Q 22.609375 35.109375 22.609375 27.296875 
Q 22.609375 19.484375 25.5625 15.375 
Q 28.515625 11.28125 34.078125 11.28125 
z
" id="DejaVuSans-Bold-100"/>
      <path d="M 7.8125 21.296875 
L 7.8125 54.6875 
L 25.390625 54.6875 
L 25.390625 49.21875 
Q 25.390625 44.78125 25.34375 38.0625 
Q 25.296875 31.34375 25.296875 29.109375 
Q 25.296875 22.515625 25.640625 19.609375 
Q 25.984375 16.703125 26.8125 15.375 
Q 27.875 13.671875 29.609375 12.734375 
Q 31.34375 11.8125 33.59375 11.8125 
Q 39.0625 11.8125 42.1875 16.015625 
Q 45.3125 20.21875 45.3125 27.6875 
L 45.3125 54.6875 
L 62.796875 54.6875 
L 62.796875 0 
L 45.3125 0 
L 45.3125 7.90625 
Q 41.359375 3.125 36.9375 0.84375 
Q 32.515625 -1.421875 27.203125 -1.421875 
Q 17.71875 -1.421875 12.765625 4.390625 
Q 7.8125 10.203125 7.8125 21.296875 
z
" id="DejaVuSans-Bold-117"/>
      <path id="DejaVuSans-Bold-32"/>
      <path d="M 9.1875 72.90625 
L 30.171875 72.90625 
L 56.6875 22.90625 
L 56.6875 72.90625 
L 74.515625 72.90625 
L 74.515625 0 
L 53.515625 0 
L 27 50 
L 27 0 
L 9.1875 0 
z
" id="DejaVuSans-Bold-78"/>
      <path d="M 59.078125 45.609375 
Q 62.40625 50.6875 66.96875 53.34375 
Q 71.53125 56 77 56 
Q 86.421875 56 91.359375 50.1875 
Q 96.296875 44.390625 96.296875 33.296875 
L 96.296875 0 
L 78.71875 0 
L 78.71875 28.515625 
Q 78.765625 29.15625 78.78125 29.828125 
Q 78.8125 30.515625 78.8125 31.78125 
Q 78.8125 37.59375 77.09375 40.203125 
Q 75.390625 42.828125 71.578125 42.828125 
Q 66.609375 42.828125 63.890625 38.71875 
Q 61.1875 34.625 61.078125 26.859375 
L 61.078125 0 
L 43.5 0 
L 43.5 28.515625 
Q 43.5 37.59375 41.9375 40.203125 
Q 40.375 42.828125 36.375 42.828125 
Q 31.34375 42.828125 28.609375 38.703125 
Q 25.875 34.578125 25.875 26.90625 
L 25.875 0 
L 8.296875 0 
L 8.296875 54.6875 
L 25.875 54.6875 
L 25.875 46.6875 
Q 29.109375 51.3125 33.28125 53.65625 
Q 37.453125 56 42.484375 56 
Q 48.140625 56 52.484375 53.265625 
Q 56.84375 50.53125 59.078125 45.609375 
z
" id="DejaVuSans-Bold-109"/>
      <path d="M 37.5 11.28125 
Q 43.109375 11.28125 46.0625 15.375 
Q 49.03125 19.484375 49.03125 27.296875 
Q 49.03125 35.109375 46.0625 39.203125 
Q 43.109375 43.3125 37.5 43.3125 
Q 31.890625 43.3125 28.875 39.1875 
Q 25.875 35.0625 25.875 27.296875 
Q 25.875 19.53125 28.875 15.40625 
Q 31.890625 11.28125 37.5 11.28125 
z
M 25.875 46.6875 
Q 29.5 51.46875 33.890625 53.734375 
Q 38.28125 56 44 56 
Q 54.109375 56 60.59375 47.96875 
Q 67.09375 39.9375 67.09375 27.296875 
Q 67.09375 14.65625 60.59375 6.609375 
Q 54.109375 -1.421875 44 -1.421875 
Q 38.28125 -1.421875 33.890625 0.84375 
Q 29.5 3.125 25.875 7.90625 
L 25.875 0 
L 8.40625 0 
L 8.40625 75.984375 
L 25.875 75.984375 
z
" id="DejaVuSans-Bold-98"/>
      <path d="M 49.03125 39.796875 
Q 46.734375 40.875 44.453125 41.375 
Q 42.1875 41.890625 39.890625 41.890625 
Q 33.15625 41.890625 29.515625 37.5625 
Q 25.875 33.25 25.875 25.203125 
L 25.875 0 
L 8.40625 0 
L 8.40625 54.6875 
L 25.875 54.6875 
L 25.875 45.703125 
Q 29.25 51.078125 33.609375 53.53125 
Q 37.984375 56 44.09375 56 
Q 44.96875 56 45.984375 55.921875 
Q 47.015625 55.859375 48.96875 55.609375 
z
" id="DejaVuSans-Bold-114"/>
     </defs>
     <g transform="translate(359.391484 560.031997)scale(0.25 -0.25)">
      <use xlink:href="#DejaVuSans-Bold-82"/>
      <use x="77.001953" xlink:href="#DejaVuSans-Bold-101"/>
      <use x="144.824219" xlink:href="#DejaVuSans-Bold-115"/>
      <use x="204.345703" xlink:href="#DejaVuSans-Bold-105"/>
      <use x="238.623047" xlink:href="#DejaVuSans-Bold-100"/>
      <use x="310.205078" xlink:href="#DejaVuSans-Bold-117"/>
      <use x="381.396484" xlink:href="#DejaVuSans-Bold-101"/>
      <use x="449.21875" xlink:href="#DejaVuSans-Bold-32"/>
      <use x="484.033203" xlink:href="#DejaVuSans-Bold-78"/>
      <use x="567.724609" xlink:href="#DejaVuSans-Bold-117"/>
      <use x="638.916016" xlink:href="#DejaVuSans-Bold-109"/>
      <use x="743.115234" xlink:href="#DejaVuSans-Bold-98"/>
      <use x="814.697266" xlink:href="#DejaVuSans-Bold-101"/>
      <use x="882.519531" xlink:href="#DejaVuSans-Bold-114"/>
     </g>
    </g>
   </g>
   <g id="matplotlib.axis_2">
    <g id="ytick_1">
     <g id="line2d_8">
      <defs>
       <path d="M 0 0 
L -3.5 0 
" id="maea4a994c1" style="stroke:#000000;stroke-width:0.8;"/>
      </defs>
      <g>
       <use style="stroke:#000000;stroke-width:0.8;" x="98.54" xlink:href="#maea4a994c1" y="497.631078"/>
      </g>
     </g>
     <g id="text_9">
      <!-- 0.000 -->
      <defs>
       <path d="M 10.203125 18.890625 
L 27.78125 18.890625 
L 27.78125 0 
L 10.203125 0 
z
" id="DejaVuSans-Bold-46"/>
      </defs>
      <g transform="translate(44.095469 503.329906)scale(0.15 -0.15)">
       <use xlink:href="#DejaVuSans-Bold-48"/>
       <use x="69.580078" xlink:href="#DejaVuSans-Bold-46"/>
       <use x="107.568359" xlink:href="#DejaVuSans-Bold-48"/>
       <use x="177.148438" xlink:href="#DejaVuSans-Bold-48"/>
       <use x="246.728516" xlink:href="#DejaVuSans-Bold-48"/>
      </g>
     </g>
    </g>
    <g id="ytick_2">
     <g id="line2d_9">
      <g>
       <use style="stroke:#000000;stroke-width:0.8;" x="98.54" xlink:href="#maea4a994c1" y="453.261611"/>
      </g>
     </g>
     <g id="text_10">
      <!-- 0.025 -->
      <g transform="translate(44.095469 458.960439)scale(0.15 -0.15)">
       <use xlink:href="#DejaVuSans-Bold-48"/>
       <use x="69.580078" xlink:href="#DejaVuSans-Bold-46"/>
       <use x="107.568359" xlink:href="#DejaVuSans-Bold-48"/>
       <use x="177.148438" xlink:href="#DejaVuSans-Bold-50"/>
       <use x="246.728516" xlink:href="#DejaVuSans-Bold-53"/>
      </g>
     </g>
    </g>
    <g id="ytick_3">
     <g id="line2d_10">
      <g>
       <use style="stroke:#000000;stroke-width:0.8;" x="98.54" xlink:href="#maea4a994c1" y="408.892144"/>
      </g>
     </g>
     <g id="text_11">
      <!-- 0.050 -->
      <g transform="translate(44.095469 414.590972)scale(0.15 -0.15)">
       <use xlink:href="#DejaVuSans-Bold-48"/>
       <use x="69.580078" xlink:href="#DejaVuSans-Bold-46"/>
       <use x="107.568359" xlink:href="#DejaVuSans-Bold-48"/>
       <use x="177.148438" xlink:href="#DejaVuSans-Bold-53"/>
       <use x="246.728516" xlink:href="#DejaVuSans-Bold-48"/>
      </g>
     </g>
    </g>
    <g id="ytick_4">
     <g id="line2d_11">
      <g>
       <use style="stroke:#000000;stroke-width:0.8;" x="98.54" xlink:href="#maea4a994c1" y="364.522677"/>
      </g>
     </g>
     <g id="text_12">
      <!-- 0.075 -->
      <defs>
       <path d="M 6.6875 72.90625 
L 61.625 72.90625 
L 61.625 62.3125 
L 33.203125 0 
L 14.890625 0 
L 41.796875 59.078125 
L 6.6875 59.078125 
z
" id="DejaVuSans-Bold-55"/>
      </defs>
      <g transform="translate(44.095469 370.221505)scale(0.15 -0.15)">
       <use xlink:href="#DejaVuSans-Bold-48"/>
       <use x="69.580078" xlink:href="#DejaVuSans-Bold-46"/>
       <use x="107.568359" xlink:href="#DejaVuSans-Bold-48"/>
       <use x="177.148438" xlink:href="#DejaVuSans-Bold-55"/>
       <use x="246.728516" xlink:href="#DejaVuSans-Bold-53"/>
      </g>
     </g>
    </g>
    <g id="ytick_5">
     <g id="line2d_12">
      <g>
       <use style="stroke:#000000;stroke-width:0.8;" x="98.54" xlink:href="#maea4a994c1" y="320.15321"/>
      </g>
     </g>
     <g id="text_13">
      <!-- 0.100 -->
      <g transform="translate(44.095469 325.852038)scale(0.15 -0.15)">
       <use xlink:href="#DejaVuSans-Bold-48"/>
       <use x="69.580078" xlink:href="#DejaVuSans-Bold-46"/>
       <use x="107.568359" xlink:href="#DejaVuSans-Bold-49"/>
       <use x="177.148438" xlink:href="#DejaVuSans-Bold-48"/>
       <use x="246.728516" xlink:href="#DejaVuSans-Bold-48"/>
      </g>
     </g>
    </g>
    <g id="ytick_6">
     <g id="line2d_13">
      <g>
       <use style="stroke:#000000;stroke-width:0.8;" x="98.54" xlink:href="#maea4a994c1" y="275.783743"/>
      </g>
     </g>
     <g id="text_14">
      <!-- 0.125 -->
      <g transform="translate(44.095469 281.482571)scale(0.15 -0.15)">
       <use xlink:href="#DejaVuSans-Bold-48"/>
       <use x="69.580078" xlink:href="#DejaVuSans-Bold-46"/>
       <use x="107.568359" xlink:href="#DejaVuSans-Bold-49"/>
       <use x="177.148438" xlink:href="#DejaVuSans-Bold-50"/>
       <use x="246.728516" xlink:href="#DejaVuSans-Bold-53"/>
      </g>
     </g>
    </g>
    <g id="ytick_7">
     <g id="line2d_14">
      <g>
       <use style="stroke:#000000;stroke-width:0.8;" x="98.54" xlink:href="#maea4a994c1" y="231.414275"/>
      </g>
     </g>
     <g id="text_15">
      <!-- 0.150 -->
      <g transform="translate(44.095469 237.113104)scale(0.15 -0.15)">
       <use xlink:href="#DejaVuSans-Bold-48"/>
       <use x="69.580078" xlink:href="#DejaVuSans-Bold-46"/>
       <use x="107.568359" xlink:href="#DejaVuSans-Bold-49"/>
       <use x="177.148438" xlink:href="#DejaVuSans-Bold-53"/>
       <use x="246.728516" xlink:href="#DejaVuSans-Bold-48"/>
      </g>
     </g>
    </g>
    <g id="ytick_8">
     <g id="line2d_15">
      <g>
       <use style="stroke:#000000;stroke-width:0.8;" x="98.54" xlink:href="#maea4a994c1" y="187.044808"/>
      </g>
     </g>
     <g id="text_16">
      <!-- 0.175 -->
      <g transform="translate(44.095469 192.743636)scale(0.15 -0.15)">
       <use xlink:href="#DejaVuSans-Bold-48"/>
       <use x="69.580078" xlink:href="#DejaVuSans-Bold-46"/>
       <use x="107.568359" xlink:href="#DejaVuSans-Bold-49"/>
       <use x="177.148438" xlink:href="#DejaVuSans-Bold-55"/>
       <use x="246.728516" xlink:href="#DejaVuSans-Bold-53"/>
      </g>
     </g>
    </g>
    <g id="ytick_9">
     <g id="line2d_16">
      <g>
       <use style="stroke:#000000;stroke-width:0.8;" x="98.54" xlink:href="#maea4a994c1" y="142.675341"/>
      </g>
     </g>
     <g id="text_17">
      <!-- 0.200 -->
      <g transform="translate(44.095469 148.374169)scale(0.15 -0.15)">
       <use xlink:href="#DejaVuSans-Bold-48"/>
       <use x="69.580078" xlink:href="#DejaVuSans-Bold-46"/>
       <use x="107.568359" xlink:href="#DejaVuSans-Bold-50"/>
       <use x="177.148438" xlink:href="#DejaVuSans-Bold-48"/>
       <use x="246.728516" xlink:href="#DejaVuSans-Bold-48"/>
      </g>
     </g>
    </g>
    <g id="text_18">
     <!-- $\delta$q($\AA$) -->
     <defs>
      <path d="M 54.25 63.328125 
Q 49.953125 66.75 38.28125 66.75 
Q 25.921875 66.75 24.8125 61.03125 
Q 23.921875 56.546875 36.375 54.203125 
Q 46.140625 52.390625 50.828125 46.921875 
Q 56.5 40.328125 53.859375 26.8125 
Q 51.3125 13.875 43.171875 6.25 
Q 34.96875 -1.421875 23.25 -1.421875 
Q 11.578125 -1.421875 6.34375 6.25 
Q 1.125 13.875 3.765625 27.296875 
Q 5.671875 37.25 13.921875 45.3125 
Q 17.140625 48.4375 21.140625 50.203125 
Q 14.265625 54.046875 15.625 60.9375 
Q 18.21875 74.21875 39.75 74.21875 
Q 50.53125 74.21875 55.71875 70.796875 
z
M 27.390625 47.75 
Q 23.828125 46.34375 20.40625 42.78125 
Q 15.140625 37.25 13.234375 27.296875 
Q 11.28125 17.390625 14.359375 11.8125 
Q 17.484375 6.203125 24.75 6.203125 
Q 31.9375 6.203125 37.203125 11.859375 
Q 42.53125 17.53125 44.34375 26.8125 
Q 46.1875 36.53125 42.671875 41.21875 
Q 38.921875 46.234375 32.859375 46.78125 
Q 29.78125 47.078125 27.390625 47.75 
z
" id="DejaVuSans-Oblique-948"/>
      <path d="M 34.078125 43.3125 
Q 28.515625 43.3125 25.5625 39.203125 
Q 22.609375 35.109375 22.609375 27.296875 
Q 22.609375 19.484375 25.5625 15.375 
Q 28.515625 11.28125 34.078125 11.28125 
Q 39.703125 11.28125 42.65625 15.375 
Q 45.609375 19.484375 45.609375 27.296875 
Q 45.609375 35.109375 42.65625 39.203125 
Q 39.703125 43.3125 34.078125 43.3125 
z
M 45.609375 7.90625 
Q 42 3.078125 37.640625 0.828125 
Q 33.296875 -1.421875 27.59375 -1.421875 
Q 17.484375 -1.421875 10.984375 6.609375 
Q 4.5 14.65625 4.5 27.296875 
Q 4.5 39.9375 10.984375 47.921875 
Q 17.484375 55.90625 27.59375 55.90625 
Q 33.296875 55.90625 37.640625 53.65625 
Q 42 51.421875 45.609375 46.578125 
L 45.609375 54.6875 
L 63.1875 54.6875 
L 63.1875 -20.796875 
L 45.609375 -20.796875 
z
" id="DejaVuSans-Bold-113"/>
      <path d="M 37.703125 -13.1875 
L 23.1875 -13.1875 
Q 15.71875 -1.125 12.15625 9.734375 
Q 8.59375 20.609375 8.59375 31.296875 
Q 8.59375 42 12.171875 52.953125 
Q 15.765625 63.921875 23.1875 75.875 
L 37.703125 75.875 
Q 31.453125 64.3125 28.328125 53.25 
Q 25.203125 42.1875 25.203125 31.390625 
Q 25.203125 20.609375 28.296875 9.515625 
Q 31.390625 -1.5625 37.703125 -13.1875 
z
" id="DejaVuSans-Bold-40"/>
      <path d="M 49.8125 79.390625 
Q 49.8125 82.46875 47.625 84.640625 
Q 45.453125 86.8125 42.390625 86.8125 
Q 39.265625 86.8125 37.140625 84.6875 
Q 35.015625 82.5625 35.015625 79.390625 
Q 35.015625 76.3125 37.140625 74.15625 
Q 39.265625 72.015625 42.390625 72.015625 
Q 45.453125 72.015625 47.625 74.15625 
Q 49.8125 76.3125 49.8125 79.390625 
z
M 34.421875 68.703125 
Q 31.78125 70.515625 30.390625 73.265625 
Q 29 76.03125 29 79.390625 
Q 29 84.96875 32.90625 88.890625 
Q 36.8125 92.828125 42.390625 92.828125 
Q 47.953125 92.828125 51.875 88.890625 
Q 55.8125 84.96875 55.8125 79.390625 
Q 55.8125 75.53125 54.03125 72.546875 
Q 52.25 69.578125 48.875 67.828125 
L 61.53125 0 
L 51.21875 0 
L 48.1875 18.703125 
L 15.375 18.703125 
L 5.078125 0 
L -5.328125 0 
z
M 40.375 63.1875 
L 19.921875 26.90625 
L 46.6875 26.90625 
z
" id="DejaVuSans-Oblique-197"/>
      <path d="M 8.015625 -13.1875 
Q 14.265625 -1.5625 17.390625 9.515625 
Q 20.515625 20.609375 20.515625 31.390625 
Q 20.515625 42.1875 17.390625 53.25 
Q 14.265625 64.3125 8.015625 75.875 
L 22.515625 75.875 
Q 29.9375 63.921875 33.515625 52.953125 
Q 37.109375 42 37.109375 31.296875 
Q 37.109375 20.609375 33.546875 9.734375 
Q 29.984375 -1.125 22.515625 -13.1875 
z
" id="DejaVuSans-Bold-41"/>
     </defs>
     <g transform="translate(34.845469 341.776183)rotate(-90)scale(0.25 -0.25)">
      <use transform="translate(0 0.171875)" xlink:href="#DejaVuSans-Oblique-948"/>
      <use transform="translate(61.181641 0.171875)" xlink:href="#DejaVuSans-Bold-113"/>
      <use transform="translate(132.763672 0.171875)" xlink:href="#DejaVuSans-Bold-40"/>
      <use transform="translate(178.466797 0.171875)" xlink:href="#DejaVuSans-Oblique-197"/>
      <use transform="translate(246.875 0.171875)" xlink:href="#DejaVuSans-Bold-41"/>
     </g>
    </g>
   </g>
   <g id="LineCollection_1">
    <path clip-path="url(#pdf406e853d)" d="M 566.738152 497.631078 
L 566.738152 112.671288 
" style="fill:none;stroke:#000000;stroke-dasharray:5.55,2.4;stroke-dashoffset:0;stroke-width:1.5;"/>
    <path clip-path="url(#pdf406e853d)" d="M 710.991343 497.631078 
L 710.991343 112.671288 
" style="fill:none;stroke:#000000;stroke-dasharray:5.55,2.4;stroke-dashoffset:0;stroke-width:1.5;"/>
    <path clip-path="url(#pdf406e853d)" d="M 818.897273 497.631078 
L 818.897273 112.671288 
" style="fill:none;stroke:#000000;stroke-dasharray:5.55,2.4;stroke-dashoffset:0;stroke-width:1.5;"/>
   </g>
   <g id="line2d_17">
    <path clip-path="url(#pdf406e853d)" d="M 132.842727 371.575647 
L 133.978579 364.678857 
L 135.114431 369.074984 
L 136.250283 367.5469 
L 137.386135 382.121382 
L 139.657839 403.759484 
L 140.793691 415.272473 
L 141.929542 417.137766 
L 143.065394 428.036681 
L 144.201246 429.474252 
L 145.337098 435.776491 
L 146.47295 439.310076 
L 147.608802 430.209011 
L 148.744654 425.573289 
L 149.880506 411.428303 
L 151.016358 400.286242 
L 152.15221 384.920208 
L 153.288061 372.83219 
L 154.423913 366.348924 
L 155.559765 351.045007 
L 156.695617 352.896102 
L 157.831469 365.152723 
L 158.967321 381.466489 
L 160.103173 390.661617 
L 161.239025 406.927464 
L 162.374877 411.426528 
L 163.510728 423.889024 
L 164.64658 426.444705 
L 165.782432 425.940668 
L 166.918284 439.102427 
L 168.054136 440.802665 
L 169.189988 443.903203 
L 170.32584 435.558194 
L 171.461692 441.425612 
L 172.597544 439.059832 
L 173.733396 437.698577 
L 174.869247 428.013609 
L 176.005099 423.658302 
L 177.140951 414.381534 
L 178.276803 410.28357 
L 179.412655 400.910964 
L 180.548507 402.486968 
L 181.684359 393.462218 
L 182.820211 390.446869 
L 183.956063 389.811498 
L 185.091915 399.681042 
L 186.227766 402.114264 
L 187.363618 413.593533 
L 188.49947 419.469825 
L 189.635322 430.265803 
L 190.771174 437.640009 
L 191.907026 430.070578 
L 193.042878 423.605059 
L 194.17873 428.588638 
L 195.314582 429.277252 
L 196.450433 419.120193 
L 197.586285 415.906069 
L 198.722137 408.40053 
L 200.993841 400.621675 
L 202.129693 401.762858 
L 203.265545 393.36283 
L 204.401397 397.151983 
L 205.537249 407.364059 
L 206.673101 408.927639 
L 207.808952 417.746515 
L 208.944804 420.465476 
L 210.080656 411.078671 
L 211.216508 414.214705 
L 212.35236 412.732765 
L 213.488212 402.348535 
L 214.624064 399.207177 
L 215.759916 391.210024 
L 216.895768 392.136458 
L 218.03162 383.347754 
L 219.167471 380.809821 
L 220.303323 381.021019 
L 221.439175 390.95623 
L 223.710879 403.755934 
L 224.846731 395.764106 
L 225.982583 389.912661 
L 227.118435 396.482891 
L 228.254287 400.17798 
L 229.390138 389.816822 
L 230.52599 388.095287 
L 231.661842 396.353332 
L 232.797694 400.282692 
L 233.933546 396.232647 
L 235.069398 395.386078 
L 236.20525 386.082688 
L 237.341102 387.019771 
L 238.476954 377.794472 
L 239.612806 372.723929 
L 240.748657 368.366847 
L 241.884509 357.247859 
L 243.020361 359.601215 
L 245.292065 376.039216 
L 246.427917 384.616721 
L 247.563769 383.145429 
L 248.699621 386.293887 
L 249.835473 380.424694 
L 250.971325 385.049767 
L 252.107176 380.114107 
L 253.243028 370.682934 
L 254.37888 370.709555 
L 255.514732 371.651963 
L 256.650584 377.92758 
L 257.786436 380.016495 
L 258.922288 391.407024 
L 260.05814 388.375702 
L 261.193992 385.02137 
L 262.329843 396.25572 
L 263.465695 402.408877 
L 264.601547 394.777329 
L 265.737399 402.240273 
L 266.873251 411.643051 
L 268.009103 401.746885 
L 269.144955 396.825424 
L 270.280807 409.023477 
L 271.416659 408.794531 
L 272.552511 394.89269 
L 273.688362 398.305589 
L 274.824214 408.23725 
L 275.960066 396.660369 
L 277.095918 387.126258 
L 278.23177 396.573405 
L 279.367622 394.475617 
L 280.503474 379.169925 
L 281.639326 376.277036 
L 282.775178 364.822614 
L 283.91103 366.01704 
L 285.046881 369.555949 
L 286.182733 362.140924 
L 287.318585 366.506879 
L 288.454437 378.420969 
L 289.590289 383.995548 
L 290.726141 396.035647 
L 291.861993 406.244174 
L 292.997845 409.591407 
L 294.133697 416.825405 
L 295.269548 410.849725 
L 296.4054 410.549787 
L 297.541252 403.095717 
L 299.812956 380.156702 
L 300.948808 380.815145 
L 302.08466 392.312161 
L 303.220512 388.494612 
L 304.356364 377.585048 
L 306.628067 391.224222 
L 307.763919 379.081186 
L 308.899771 374.537753 
L 310.035623 385.449092 
L 311.171475 381.674138 
L 312.307327 368.659686 
L 313.443179 372.690208 
L 314.579031 380.069738 
L 315.714883 368.125477 
L 316.850734 372.411568 
L 317.986586 362.859709 
L 319.122438 370.601294 
L 320.25829 362.518952 
L 321.394142 371.483359 
L 322.529994 384.197873 
L 323.665846 391.004149 
L 325.93755 414.645976 
L 327.073402 411.057374 
L 328.209253 396.33026 
L 330.480957 407.694168 
L 331.616809 392.759406 
L 332.752661 385.889237 
L 333.888513 394.775554 
L 335.024365 386.643518 
L 336.160217 371.327178 
L 337.296069 367.995919 
L 338.431921 358.058933 
L 339.567772 342.428457 
L 340.703624 332.152488 
L 341.839476 334.665575 
L 342.975328 330.438052 
L 345.247032 362.249185 
L 348.654588 405.172208 
L 352.062143 440.765394 
L 353.197995 445.782694 
L 354.333847 448.395168 
L 355.469699 443.00339 
L 356.605551 433.737271 
L 357.741403 435.42331 
L 358.877255 440.628736 
L 360.013107 439.970293 
L 361.148958 435.962843 
L 362.28481 422.066326 
L 363.420662 409.871822 
L 364.556514 396.332035 
L 365.692366 379.262214 
L 366.828218 366.931051 
L 369.099922 335.100396 
L 370.235774 324.776508 
L 371.371626 324.705517 
L 372.507477 315.073793 
L 374.779181 339.107846 
L 377.050885 370.753925 
L 378.186737 380.69801 
L 379.322589 396.655045 
L 380.458441 399.091816 
L 381.594293 414.362012 
L 383.865996 433.206612 
L 385.001848 435.079003 
L 387.273552 422.187011 
L 388.409404 418.655201 
L 389.545256 423.003409 
L 390.681108 419.019031 
L 391.81696 417.574361 
L 392.952812 409.948137 
L 394.088663 399.633123 
L 395.224515 398.546959 
L 396.360367 400.405152 
L 398.632071 380.428243 
L 400.903775 384.607847 
L 402.039627 371.330728 
L 403.175479 364.01509 
L 404.311331 369.476084 
L 405.447182 363.880207 
L 406.583034 350.58179 
L 407.718886 349.167292 
L 408.854738 352.670705 
L 411.126442 332.21993 
L 412.262294 334.894521 
L 413.398146 338.618007 
L 414.533998 330.597782 
L 415.669849 341.619158 
L 416.805701 350.324447 
L 417.941553 364.879407 
L 419.077405 365.651436 
L 420.213257 360.612839 
L 422.484961 383.322907 
L 423.620813 391.15678 
L 424.756665 386.677239 
L 425.892517 388.830046 
L 427.028368 401.620876 
L 428.16422 403.615727 
L 429.300072 395.907863 
L 430.435924 404.696567 
L 431.571776 416.108394 
L 433.84348 401.178956 
L 434.979332 412.974135 
L 436.115184 417.137766 
L 437.251036 402.369832 
L 438.386887 401.768182 
L 439.522739 412.368935 
L 440.658591 401.269469 
L 441.794443 387.956854 
L 442.930295 391.213573 
L 444.066147 387.049943 
L 446.337851 364.512028 
L 447.473703 370.198419 
L 448.609554 381.771751 
L 449.745406 380.250765 
L 450.881258 386.144805 
L 452.01711 387.138681 
L 453.152962 390.634995 
L 454.288814 388.521234 
L 455.424666 383.166727 
L 456.560518 380.715757 
L 457.69637 368.714704 
L 458.832222 358.509727 
L 459.968073 343.638856 
L 461.103925 330.926116 
L 462.239777 332.010506 
L 463.375629 346.767791 
L 464.511481 359.862108 
L 465.647333 360.252559 
L 466.783185 369.575472 
L 467.919037 371.332503 
L 469.054889 370.365248 
L 470.190741 366.187419 
L 471.326592 363.850036 
L 472.462444 368.959623 
L 473.598296 364.907804 
L 474.734148 369.371372 
L 475.87 355.027611 
L 477.005852 356.67638 
L 478.141704 372.042414 
L 479.277556 368.712929 
L 480.413408 358.154771 
L 481.549259 367.987045 
L 482.685111 380.572 
L 483.820963 375.760575 
L 484.956815 388.932983 
L 486.092667 404.046998 
L 487.228519 407.103167 
L 488.364371 402.096516 
L 490.636075 422.790436 
L 491.771927 413.231478 
L 492.907778 415.662924 
L 494.04363 430.659804 
L 495.179482 425.445505 
L 496.315334 418.694246 
L 497.451186 432.825034 
L 498.587038 429.08735 
L 499.72289 414.653075 
L 500.858742 419.562113 
L 501.994594 422.951941 
L 503.130446 408.388107 
L 504.266297 400.635873 
L 505.402149 390.347481 
L 506.538001 382.739005 
L 507.673853 381.743354 
L 508.809705 365.683382 
L 509.945557 369.112254 
L 511.081409 378.193797 
L 512.217261 367.761648 
L 513.353113 380.154927 
L 514.488964 395.435772 
L 515.624816 404.6309 
L 519.032372 446.146523 
L 520.168224 447.550373 
L 521.304076 436.120798 
L 523.57578 419.306545 
L 524.711632 410.878121 
L 525.847483 395.064843 
L 526.983335 394.711662 
L 528.119187 407.289519 
L 529.255039 399.897565 
L 530.390891 385.566228 
L 531.526743 391.619998 
L 532.662595 399.366907 
L 533.798447 383.422295 
L 534.934299 375.666512 
L 536.070151 385.690462 
L 537.206002 383.724007 
L 538.341854 367.511404 
L 539.477706 367.790044 
L 540.613558 375.650539 
L 541.74941 391.013023 
L 542.885262 390.785852 
L 544.021114 400.879018 
L 545.156966 389.955255 
L 546.292818 401.556983 
L 547.428669 417.389784 
L 549.700373 438.571768 
L 550.836225 424.270601 
L 551.972077 413.911218 
L 553.107929 416.772161 
L 554.243781 411.53124 
L 555.379633 400.54181 
L 556.515485 398.021624 
L 557.651337 394.903338 
L 559.92304 379.583449 
L 562.194744 374.101157 
L 563.330596 365.394093 
L 564.466448 351.408837 
L 565.6023 365.933626 
L 566.738152 362.719502 
L 567.874004 347.49545 
L 569.009856 352.800263 
L 570.145707 347.940919 
L 571.281559 323.516415 
L 572.417411 303.166803 
L 573.553263 293.382448 
L 574.689115 303.727633 
L 575.824967 315.402127 
L 576.960819 317.837123 
L 578.096671 315.265469 
L 579.232523 303.947705 
L 580.368374 311.415974 
L 581.504226 319.895867 
L 582.640078 334.70107 
L 586.047634 391.909287 
L 587.183486 407.080095 
L 588.319338 402.930662 
L 589.45519 404.884694 
L 590.591042 392.665342 
L 591.726893 366.81924 
L 592.862745 371.515305 
L 593.998597 372.19327 
L 595.134449 381.074263 
L 596.270301 391.92526 
L 597.406153 384.590099 
L 598.542005 389.587876 
L 599.677857 371.540152 
L 600.813709 357.927599 
L 601.949561 338.350015 
L 603.085412 323.35491 
L 604.221264 332.324642 
L 605.357116 322.67872 
L 606.492968 326.498043 
L 607.62882 328.095344 
L 612.172228 389.628696 
L 613.308079 402.840148 
L 614.443931 410.375859 
L 615.579783 422.355615 
L 616.715635 415.558213 
L 617.851487 404.458747 
L 618.987339 394.512887 
L 620.123191 377.215894 
L 621.259043 364.144649 
L 622.394895 359.88163 
L 623.530747 378.637492 
L 624.666598 375.891909 
L 626.938302 408.40408 
L 629.210006 422.130218 
L 630.345858 418.039353 
L 631.48171 405.685119 
L 632.617562 388.538982 
L 633.753414 368.098856 
L 634.889266 352.58374 
L 636.025117 340.513471 
L 637.160969 337.492797 
L 638.296821 347.461729 
L 639.432673 348.026109 
L 640.568525 370.070635 
L 641.704377 358.373069 
L 642.840229 341.157715 
L 643.976081 357.835311 
L 645.111933 367.144025 
L 646.247784 390.970429 
L 647.383636 392.725685 
L 648.519488 407.342762 
L 649.65534 414.825229 
L 650.791192 404.952135 
L 651.927044 400.325287 
L 653.062896 393.684065 
L 654.198748 379.33143 
L 655.3346 362.783394 
L 656.470452 372.205694 
L 657.606303 353.435634 
L 658.742155 348.444957 
L 659.878007 358.829187 
L 661.013859 363.45071 
L 662.149711 381.501984 
L 663.285563 394.969005 
L 664.421415 389.928634 
L 665.557267 391.685664 
L 666.693119 397.805101 
L 667.82897 406.063147 
L 668.964822 401.045847 
L 670.100674 406.329363 
L 671.236526 388.682739 
L 672.372378 381.461164 
L 673.50823 362.110752 
L 674.644082 352.762993 
L 676.915786 318.715639 
L 678.051638 323.31409 
L 679.187489 338.053627 
L 680.323341 346.199862 
L 681.459193 367.891207 
L 682.595045 367.676458 
L 683.730897 385.413597 
L 684.866749 384.14108 
L 686.002601 396.825424 
L 687.138453 384.240468 
L 688.274305 381.047641 
L 690.546008 356.763344 
L 691.68186 342.630782 
L 692.817712 344.60966 
L 693.953564 352.335271 
L 695.089416 362.274032 
L 696.225268 373.629066 
L 697.36112 374.388671 
L 698.496972 379.068763 
L 699.632824 364.373595 
L 700.768675 369.428165 
L 701.904527 350.317348 
L 703.040379 344.8883 
L 704.176231 334.42243 
L 705.312083 358.976493 
L 706.447935 362.712402 
L 708.719639 312.880167 
L 709.855491 293.160601 
L 710.991343 285.426115 
L 712.127194 307.843345 
L 713.263046 309.316411 
L 714.398898 286.100531 
L 715.53475 289.556025 
L 716.670602 309.772529 
L 717.806454 296.575275 
L 718.942306 277.157421 
L 720.078158 291.728354 
L 721.21401 304.51031 
L 722.349862 284.134076 
L 723.485713 268.801763 
L 724.621565 284.42159 
L 725.757417 291.542002 
L 726.893269 275.616913 
L 728.029121 284.561798 
L 729.164973 310.732684 
L 730.300825 307.493713 
L 731.436677 294.195297 
L 732.572529 317.288717 
L 733.70838 331.517118 
L 734.844232 319.040423 
L 735.980084 322.391206 
L 737.115936 339.209008 
L 739.38764 331.282847 
L 740.523492 328.734265 
L 741.659344 330.762837 
L 742.795196 339.516045 
L 745.066899 308.322535 
L 746.202751 322.403629 
L 747.338603 321.047698 
L 748.474455 289.325304 
L 749.610307 280.369771 
L 750.746159 298.09626 
L 751.882011 285.319628 
L 753.017863 251.091247 
L 754.153715 253.542216 
L 755.289567 271.167543 
L 756.425418 236.207953 
L 757.56127 215.212321 
L 758.697122 235.867195 
L 759.832974 229.987353 
L 760.968826 189.541922 
L 762.104678 166.915269 
L 763.24053 200.696406 
L 764.376382 203.339051 
L 765.512234 172.670876 
L 766.648085 147.653595 
L 767.783937 161.425878 
L 768.919789 200.753199 
L 770.055641 189.91995 
L 771.191493 170.603259 
L 773.463197 230.377805 
L 774.599049 210.503833 
L 775.734901 205.420867 
L 776.870753 242.920166 
L 778.006604 248.306619 
L 779.142456 225.092514 
L 780.278308 243.427752 
L 781.41416 273.751621 
L 782.550012 255.792635 
L 783.685864 249.053801 
L 784.821716 277.88863 
L 785.957568 286.093432 
L 787.09342 266.647182 
L 789.365123 300.637743 
L 790.500975 308.528409 
L 791.636827 324.165984 
L 792.772679 327.621478 
L 793.908531 305.443844 
L 795.044383 315.77838 
L 796.180235 335.796109 
L 797.316087 314.035547 
L 798.451939 296.731455 
L 799.58779 318.775981 
L 800.723642 317.538961 
L 801.859494 283.02484 
L 802.995346 285.724278 
L 804.131198 310.988252 
L 805.26705 289.763674 
L 806.402902 261.587288 
L 807.538754 281.709729 
L 808.674606 288.375797 
L 809.810458 263.848356 
L 810.946309 270.809038 
L 812.082161 307.369479 
L 813.218013 299.324407 
L 814.353865 277.444935 
L 815.489717 299.933156 
L 816.625569 326.815729 
L 817.761421 301.296186 
L 818.897273 325.853799 
L 818.897273 325.853799 
" style="fill:none;stroke:#000000;stroke-linecap:square;stroke-width:2;"/>
   </g>
   <g id="line2d_18">
    <path clip-path="url(#pdf406e853d)" d="M 132.842727 451.355499 
L 133.978579 451.334201 
L 135.114431 450.945525 
L 136.250283 451.609292 
L 137.386135 453.35035 
L 138.521987 453.605918 
L 139.657839 457.061412 
L 140.793691 457.407494 
L 141.929542 460.344753 
L 143.065394 460.605645 
L 144.201246 462.641316 
L 145.337098 464.155202 
L 147.608802 461.910107 
L 148.744654 459.228417 
L 149.880506 457.313431 
L 151.016358 453.476359 
L 152.15221 450.725452 
L 153.288061 447.349823 
L 154.423913 445.223638 
L 155.559765 441.991766 
L 156.695617 441.175368 
L 157.831469 442.783318 
L 158.967321 446.693155 
L 160.103173 449.444062 
L 161.239025 453.444413 
L 163.510728 459.437841 
L 164.64658 462.7691 
L 166.918284 466.192648 
L 168.054136 463.111633 
L 169.189988 462.737154 
L 170.32584 460.071437 
L 171.461692 460.768925 
L 172.597544 464.263464 
L 173.733396 466.373676 
L 174.869247 466.813821 
L 176.005099 470.244468 
L 177.140951 472.824996 
L 178.276803 476.223697 
L 179.412655 478.910712 
L 180.548507 481.113213 
L 181.684359 484.057571 
L 182.820211 484.247472 
L 186.227766 476.633671 
L 187.363618 475.086064 
L 188.49947 471.767228 
L 189.635322 469.756404 
L 190.771174 470.66864 
L 191.907026 474.108161 
L 193.042878 474.172053 
L 194.17873 472.601374 
L 195.314582 474.535883 
L 196.450433 477.457169 
L 197.586285 475.707237 
L 198.722137 476.466842 
L 199.857989 479.828273 
L 200.993841 480.311013 
L 202.129693 477.505088 
L 203.265545 479.001226 
L 204.401397 479.171605 
L 206.673101 473.410673 
L 208.944804 467.417246 
L 210.080656 467.605372 
L 211.216508 463.936905 
L 212.35236 464.080662 
L 213.488212 466.819145 
L 215.759916 464.829618 
L 216.895768 465.374475 
L 219.167471 470.409523 
L 220.303323 468.036643 
L 221.439175 464.739105 
L 222.575027 462.518856 
L 223.710879 463.748778 
L 224.846731 467.317858 
L 225.982583 467.440318 
L 227.118435 465.757828 
L 228.254287 467.98695 
L 229.390138 470.9881 
L 230.52599 469.259466 
L 231.661842 468.778501 
L 232.797694 471.117659 
L 233.933546 474.235945 
L 236.20525 477.654169 
L 237.341102 475.148182 
L 238.476954 476.23967 
L 239.612806 474.984902 
L 240.748657 474.752406 
L 241.884509 475.67884 
L 243.020361 472.139932 
L 244.156213 471.854192 
L 245.292065 470.283513 
L 246.427917 470.883388 
L 248.699621 475.618498 
L 249.835473 479.134335 
L 250.971325 480.140634 
L 252.107176 483.232299 
L 253.243028 483.73811 
L 255.514732 478.541558 
L 257.786436 471.868391 
L 258.922288 470.075864 
L 260.05814 467.131506 
L 261.193992 469.639269 
L 262.329843 470.929533 
L 263.465695 467.410147 
L 264.601547 466.549379 
L 265.737399 468.897411 
L 266.873251 466.485487 
L 268.009103 463.716832 
L 269.144955 465.292836 
L 270.280807 465.69926 
L 271.416659 462.297009 
L 272.552511 460.93043 
L 273.688362 462.417694 
L 274.824214 461.20552 
L 275.960066 457.79617 
L 277.095918 458.195496 
L 278.23177 459.629517 
L 279.367622 456.683384 
L 280.503474 454.147225 
L 281.639326 455.607868 
L 282.775178 454.328253 
L 283.91103 456.461537 
L 286.182733 456.044464 
L 287.318585 454.649488 
L 288.454437 455.137552 
L 289.590289 453.87036 
L 290.726141 456.044464 
L 291.861993 455.448138 
L 292.997845 455.914905 
L 294.133697 454.125928 
L 295.269548 450.643812 
L 296.4054 451.960698 
L 297.541252 455.263561 
L 298.677104 455.331003 
L 299.812956 455.808418 
L 300.948808 459.780373 
L 302.08466 459.938328 
L 303.220512 457.19452 
L 304.356364 458.687109 
L 305.492216 462.321856 
L 306.628067 460.875411 
L 307.763919 458.9622 
L 308.899771 461.986423 
L 310.035623 463.635192 
L 311.171475 460.774249 
L 312.307327 460.836366 
L 313.443179 464.449816 
L 314.579031 463.619219 
L 315.714883 460.92333 
L 317.986586 455.996545 
L 319.122438 455.272435 
L 320.25829 452.06186 
L 321.394142 451.882608 
L 322.529994 453.524278 
L 323.665846 451.126552 
L 324.801698 450.970372 
L 325.93755 451.763698 
L 327.073402 446.920327 
L 328.209253 445.424188 
L 329.345105 449.42099 
L 330.480957 446.97002 
L 331.616809 442.080505 
L 333.888513 446.678957 
L 335.024365 441.386567 
L 337.296069 435.194364 
L 338.431921 434.111749 
L 339.567772 427.979889 
L 340.703624 423.507446 
L 341.839476 421.571163 
L 342.975328 418.800733 
L 344.11118 422.520669 
L 345.247032 426.936319 
L 346.382884 429.122846 
L 347.518736 434.367317 
L 348.654588 437.528198 
L 349.790439 443.143598 
L 350.926291 444.657484 
L 352.062143 449.811441 
L 353.197995 451.163822 
L 355.469699 458.875236 
L 356.605551 459.478661 
L 357.741403 456.312455 
L 358.877255 451.9465 
L 360.013107 449.806117 
L 361.148958 445.330125 
L 362.28481 443.800266 
L 363.420662 438.681804 
L 364.556514 437.444783 
L 365.692366 432.228709 
L 366.828218 430.867453 
L 367.96407 425.441955 
L 369.099922 422.240254 
L 370.235774 416.797008 
L 371.371626 418.307345 
L 372.507477 417.657776 
L 373.643329 422.549066 
L 374.779181 426.891949 
L 375.915033 430.239182 
L 377.050885 435.638059 
L 378.186737 436.997539 
L 379.322589 440.351871 
L 380.458441 437.123548 
L 381.594293 440.092753 
L 382.730144 444.854484 
L 383.865996 446.723326 
L 385.001848 449.855811 
L 386.1377 452.58897 
L 387.273552 456.669186 
L 388.409404 456.804069 
L 389.545256 452.876484 
L 390.681108 451.291607 
L 391.81696 454.259036 
L 392.952812 456.827141 
L 394.088663 453.263386 
L 395.224515 450.324352 
L 396.360367 452.528627 
L 397.496219 453.815342 
L 398.632071 449.477783 
L 399.767923 449.751099 
L 400.903775 453.330827 
L 402.039627 451.772572 
L 403.175479 448.276258 
L 404.311331 450.484082 
L 405.447182 452.219816 
L 406.583034 448.971971 
L 407.718886 447.330301 
L 408.854738 450.152199 
L 409.99059 449.969396 
L 411.126442 446.345298 
L 412.262294 446.558272 
L 413.398146 449.630414 
L 414.533998 449.641062 
L 415.669849 453.137376 
L 416.805701 454.793245 
L 417.941553 457.318755 
L 419.077405 458.092558 
L 420.213257 460.600321 
L 421.349109 462.421244 
L 422.484961 464.65924 
L 423.620813 464.744429 
L 424.756665 461.187772 
L 425.892517 460.40332 
L 427.028368 462.376874 
L 428.16422 460.976574 
L 429.300072 457.822792 
L 430.435924 458.11918 
L 431.571776 458.788272 
L 432.707628 456.601744 
L 433.84348 454.024766 
L 434.979332 454.269685 
L 436.115184 454.001694 
L 437.251036 451.390994 
L 438.386887 449.829189 
L 439.522739 450.439713 
L 440.658591 448.082807 
L 441.794443 445.200566 
L 442.930295 443.729275 
L 445.201999 441.938523 
L 446.337851 440.401565 
L 447.473703 443.503878 
L 448.609554 447.142174 
L 449.745406 449.030538 
L 450.881258 451.706905 
L 452.01711 453.490557 
L 453.152962 456.710006 
L 454.288814 458.284235 
L 455.424666 460.412194 
L 456.560518 459.52658 
L 457.69637 459.792796 
L 458.832222 459.755526 
L 459.968073 457.932828 
L 461.103925 456.353275 
L 462.239777 454.221766 
L 463.375629 457.43589 
L 464.511481 458.408469 
L 465.647333 455.962824 
L 466.783185 455.426841 
L 467.919037 453.717729 
L 471.326592 446.302704 
L 472.462444 445.690405 
L 473.598296 442.632461 
L 474.734148 441.489504 
L 475.87 438.630335 
L 477.005852 440.871881 
L 478.141704 443.374319 
L 479.277556 440.028861 
L 480.413408 438.990615 
L 481.549259 442.829462 
L 482.685111 443.303328 
L 483.820963 440.004014 
L 484.956815 442.449659 
L 486.092667 445.578594 
L 487.228519 443.218138 
L 488.364371 440.454808 
L 489.500223 444.057609 
L 490.636075 444.12505 
L 491.771927 439.329598 
L 492.907778 439.751996 
L 494.04363 442.249109 
L 495.179482 439.363319 
L 496.315334 435.833284 
L 497.451186 438.1121 
L 498.587038 438.772318 
L 499.72289 433.664505 
L 500.858742 432.466529 
L 501.994594 435.551094 
L 503.130446 432.943945 
L 504.266297 427.855654 
L 506.538001 423.894348 
L 507.673853 425.843055 
L 508.809705 421.91547 
L 509.945557 422.767364 
L 511.081409 427.426158 
L 512.217261 426.705597 
L 513.353113 431.630608 
L 514.488964 435.556419 
L 515.624816 441.1168 
L 516.760668 445.010665 
L 517.89652 449.729801 
L 519.032372 453.545575 
L 520.168224 455.636265 
L 521.304076 452.839214 
L 522.439928 448.824664 
L 523.57578 448.443087 
L 524.711632 446.460659 
L 525.847483 441.553396 
L 526.983335 441.051134 
L 528.119187 442.068082 
L 529.255039 440.03596 
L 530.390891 436.207763 
L 531.526743 436.094177 
L 532.662595 436.509475 
L 533.798447 432.745169 
L 534.934299 429.832757 
L 536.070151 430.09365 
L 537.206002 429.444081 
L 538.341854 426.217533 
L 539.477706 427.866303 
L 541.74941 436.415412 
L 542.885262 438.743921 
L 544.021114 443.101003 
L 545.156966 442.40529 
L 547.428669 450.590569 
L 548.564521 451.201093 
L 549.700373 455.755175 
L 550.836225 454.30873 
L 551.972077 450.640263 
L 554.243781 453.90763 
L 555.379633 450.803542 
L 556.515485 449.885982 
L 557.651337 451.845337 
L 558.787188 450.654461 
L 559.92304 449.183169 
L 561.058892 450.347424 
L 562.194744 451.156723 
L 563.330596 447.937275 
L 564.466448 443.368994 
L 565.6023 456.619492 
L 566.738152 455.169498 
L 567.874004 447.278832 
L 569.009856 460.609195 
L 570.145707 455.210318 
L 571.281559 438.55047 
L 572.417411 423.608609 
L 573.553263 417.242477 
L 574.689115 422.756715 
L 575.824967 426.466002 
L 576.960819 428.531845 
L 578.096671 425.981488 
L 579.232523 416.33734 
L 580.368374 411.866673 
L 581.504226 410.120291 
L 582.640078 411.247275 
L 583.77593 421.104396 
L 584.911782 425.818208 
L 586.047634 431.856005 
L 587.183486 433.650306 
L 588.319338 430.155767 
L 589.45519 433.783415 
L 590.591042 431.087526 
L 591.726893 418.667625 
L 592.862745 418.887697 
L 593.998597 420.811557 
L 595.134449 425.166864 
L 596.270301 433.307774 
L 597.406153 434.415236 
L 598.542005 438.648083 
L 599.677857 434.365542 
L 600.813709 431.824059 
L 601.949561 422.215407 
L 603.085412 420.34834 
L 604.221264 426.306272 
L 605.357116 422.781562 
L 606.492968 422.376912 
L 607.62882 422.886274 
L 608.764672 428.565565 
L 609.900524 431.953618 
L 611.036376 437.192765 
L 612.172228 438.282479 
L 613.308079 438.889453 
L 614.443931 435.265355 
L 615.579783 436.26988 
L 616.715635 433.053981 
L 617.851487 433.82246 
L 618.987339 431.69805 
L 620.123191 428.350817 
L 621.259043 422.350291 
L 622.394895 425.102972 
L 623.530747 432.927971 
L 624.666598 432.825034 
L 625.80245 437.03126 
L 626.938302 438.816687 
L 628.074154 438.555795 
L 629.210006 436.899926 
L 630.345858 431.685626 
L 631.48171 428.645431 
L 633.753414 415.442852 
L 634.889266 411.300518 
L 636.025117 410.544463 
L 637.160969 406.647049 
L 638.296821 412.560611 
L 639.432673 408.973784 
L 640.568525 415.950439 
L 642.840229 400.657171 
L 643.976081 408.075746 
L 645.111933 408.578008 
L 646.247784 417.235378 
L 647.383636 420.396259 
L 649.65534 430.526696 
L 650.791192 431.744194 
L 651.927044 434.764867 
L 653.062896 434.175641 
L 654.198748 432.028159 
L 655.3346 426.006335 
L 656.470452 426.604435 
L 657.606303 417.769587 
L 658.742155 416.436728 
L 659.878007 413.964461 
L 661.013859 413.403631 
L 662.149711 420.461926 
L 663.285563 420.011132 
L 664.421415 416.775711 
L 665.557267 423.36014 
L 666.693119 425.553766 
L 667.82897 432.8978 
L 668.964822 434.031884 
L 670.100674 438.012712 
L 671.236526 434.615786 
L 672.372378 432.702575 
L 673.50823 427.956816 
L 674.644082 426.130569 
L 675.779934 421.356414 
L 676.915786 418.316219 
L 678.051638 417.971912 
L 679.187489 420.70862 
L 680.323341 417.987885 
L 681.459193 427.491824 
L 682.595045 424.616683 
L 683.730897 429.346468 
L 684.866749 429.371315 
L 686.002601 433.42136 
L 687.138453 428.574439 
L 688.274305 425.481 
L 690.546008 411.389257 
L 691.68186 409.099793 
L 692.817712 410.798256 
L 693.953564 416.026754 
L 696.225268 423.816258 
L 697.36112 422.297047 
L 698.496972 421.702496 
L 699.632824 416.168736 
L 700.768675 416.600008 
L 701.904527 407.965709 
L 703.040379 413.227928 
L 704.176231 397.146658 
L 705.312083 406.993131 
L 706.447935 409.380208 
L 708.719639 383.047817 
L 709.855491 379.530205 
L 710.991343 372.308631 
L 712.127194 382.249166 
L 713.263046 390.603049 
L 714.398898 381.849841 
L 715.53475 379.629593 
L 716.670602 391.852494 
L 717.806454 392.461243 
L 718.942306 382.036193 
L 720.078158 385.578651 
L 721.21401 395.856394 
L 722.349862 391.355556 
L 723.485713 381.594273 
L 724.621565 386.947005 
L 725.757417 394.251994 
L 726.893269 387.365853 
L 728.029121 388.006548 
L 729.164973 399.402402 
L 730.300825 401.246397 
L 731.436677 394.378004 
L 732.572529 403.024725 
L 733.70838 408.276296 
L 734.844232 405.828876 
L 735.980084 407.167059 
L 737.115936 407.578808 
L 738.251788 403.14896 
L 739.38764 409.609154 
L 740.523492 401.78593 
L 741.659344 389.041244 
L 742.795196 403.894367 
L 743.931048 398.506139 
L 745.066899 373.070011 
L 746.202751 378.149427 
L 747.338603 390.23567 
L 748.474455 366.794393 
L 749.610307 347.305549 
L 750.746159 360.401641 
L 751.882011 362.577519 
L 753.017863 334.809332 
L 754.153715 328.622453 
L 755.289567 346.235357 
L 756.425418 327.507892 
L 757.56127 305.946106 
L 758.697122 316.50249 
L 759.832974 319.700641 
L 760.968826 294.239666 
L 762.104678 282.371721 
L 763.24053 305.603574 
L 764.376382 313.366456 
L 766.648085 285.042763 
L 767.783937 301.434619 
L 768.919789 324.756986 
L 770.055641 312.063768 
L 771.191493 305.896412 
L 772.327345 331.77446 
L 773.463197 345.470428 
L 774.599049 327.52919 
L 775.734901 333.366437 
L 776.870753 360.919876 
L 778.006604 353.364643 
L 779.142456 339.169963 
L 780.278308 361.52685 
L 781.41416 376.754451 
L 782.550012 354.296402 
L 783.685864 358.981818 
L 784.821716 385.090587 
L 785.957568 377.185723 
L 787.09342 362.243861 
L 788.229272 385.594624 
L 789.365123 398.85577 
L 790.500975 417.973686 
L 791.636827 428.070402 
L 792.772679 444.920151 
L 793.908531 423.351266 
L 795.044383 417.884947 
L 796.180235 439.883329 
L 797.316087 431.742419 
L 798.451939 408.892144 
L 799.58779 417.372036 
L 800.723642 426.714471 
L 801.859494 402.252697 
L 802.995346 392.225197 
L 804.131198 409.479596 
L 805.26705 402.215426 
L 806.402902 375.682485 
L 807.538754 380.245441 
L 808.674606 386.927483 
L 809.810458 363.319377 
L 810.946309 362.030887 
L 812.082161 385.42602 
L 813.218013 378.452915 
L 814.353865 356.614263 
L 815.489717 366.987844 
L 816.625569 385.709985 
L 817.761421 367.092556 
L 818.897273 383.814521 
L 818.897273 383.814521 
" style="fill:none;stroke:#0000ff;stroke-linecap:square;stroke-width:2;"/>
   </g>
   <g id="line2d_19">
    <path clip-path="url(#pdf406e853d)" d="M 132.842727 417.851227 
L 133.978579 410.975734 
L 135.114431 415.760537 
L 136.250283 413.57046 
L 137.386135 426.40211 
L 138.521987 436.777466 
L 139.657839 444.32915 
L 140.793691 455.497832 
L 141.929542 454.422316 
L 143.065394 465.062114 
L 144.201246 464.464014 
L 146.47295 473.849044 
L 147.608802 465.929981 
L 148.744654 463.977725 
L 149.880506 451.74595 
L 151.016358 444.440961 
L 152.15221 431.825834 
L 153.288061 423.113445 
L 154.423913 418.756364 
L 155.559765 406.686094 
L 156.695617 409.351811 
L 157.831469 420.000484 
L 158.967321 432.406187 
L 160.103173 438.848633 
L 161.239025 451.114129 
L 162.374877 452.714979 
L 163.510728 462.082261 
L 164.64658 461.308457 
L 165.782432 459.079335 
L 166.918284 470.540856 
L 168.054136 475.320335 
L 169.189988 478.797127 
L 170.32584 473.117835 
L 171.461692 478.287765 
L 172.597544 472.425671 
L 173.733396 468.955979 
L 174.869247 458.830866 
L 176.005099 451.044912 
L 177.140951 439.187616 
L 178.276803 431.690951 
L 179.412655 419.63133 
L 180.548507 419.004833 
L 181.684359 407.033951 
L 182.820211 403.83225 
L 183.956063 405.749011 
L 185.091915 417.963038 
L 186.227766 423.111671 
L 187.363618 436.138546 
L 188.49947 445.333674 
L 189.635322 458.140477 
L 190.771174 464.602447 
L 191.907026 453.595269 
L 193.042878 447.064084 
L 194.17873 453.618341 
L 195.314582 452.372447 
L 196.450433 439.294103 
L 197.586285 437.82991 
L 198.722137 429.566541 
L 199.857989 422.119569 
L 200.993841 417.94174 
L 202.129693 421.890623 
L 203.265545 411.994457 
L 204.401397 415.611456 
L 205.537249 428.860179 
L 206.673101 433.148044 
L 207.808952 444.991142 
L 208.944804 450.677533 
L 210.080656 441.104377 
L 211.216508 447.908878 
L 212.35236 446.284956 
L 213.488212 433.160468 
L 214.624064 431.044931 
L 215.759916 424.011483 
L 216.895768 424.393061 
L 218.03162 413.17291 
L 219.167471 408.031376 
L 220.303323 410.615454 
L 221.439175 423.848204 
L 222.575027 432.784214 
L 223.710879 437.636459 
L 224.846731 426.077326 
L 225.982583 420.103421 
L 227.118435 428.356142 
L 228.254287 429.822109 
L 229.390138 416.461575 
L 230.52599 416.465124 
L 231.661842 425.205909 
L 232.797694 426.796111 
L 233.933546 419.62778 
L 235.069398 416.997558 
L 236.20525 406.059597 
L 237.341102 409.502668 
L 238.476954 399.187654 
L 240.748657 391.245519 
L 241.884509 379.200096 
L 243.020361 385.092362 
L 244.156213 393.435596 
L 245.292065 403.38678 
L 246.427917 411.36441 
L 247.563769 407.486519 
L 248.699621 408.306467 
L 249.835473 398.921437 
L 250.971325 402.538436 
L 252.107176 394.512887 
L 253.243028 384.577676 
L 254.37888 387.238069 
L 255.514732 390.741482 
L 256.650584 400.30044 
L 257.786436 405.779182 
L 258.922288 418.960463 
L 260.05814 418.875274 
L 261.193992 413.01318 
L 263.465695 432.629809 
L 264.601547 425.859028 
L 265.737399 430.97394 
L 266.873251 442.788642 
L 269.144955 429.163666 
L 270.280807 440.955295 
L 271.416659 444.1286 
L 272.552511 431.591563 
L 273.688362 433.518973 
L 274.824214 444.662808 
L 275.960066 436.495277 
L 277.095918 426.56184 
L 278.23177 434.576741 
L 279.367622 435.42331 
L 280.503474 422.655552 
L 281.639326 418.300246 
L 282.775178 408.125439 
L 283.91103 407.186581 
L 285.046881 410.918941 
L 286.182733 403.727538 
L 287.318585 409.488469 
L 288.454437 420.91272 
L 289.590289 427.756266 
L 291.861993 448.427114 
L 292.997845 451.30758 
L 294.133697 460.330554 
L 295.269548 457.83699 
L 296.4054 456.220167 
L 298.677104 433.772766 
L 299.812956 421.981137 
L 300.948808 418.66585 
L 302.08466 430.004911 
L 303.220512 428.93117 
L 304.356364 416.529016 
L 305.492216 419.512419 
L 306.628067 427.979889 
L 307.763919 417.750064 
L 308.899771 410.182408 
L 310.035623 419.444978 
L 311.171475 418.530967 
L 312.307327 405.454397 
L 313.443179 405.873245 
L 314.579031 414.081597 
L 315.714883 404.83145 
L 316.850734 411.485095 
L 317.986586 404.494242 
L 319.122438 412.958162 
L 320.25829 408.088169 
L 321.394142 417.231829 
L 322.529994 428.302898 
L 323.665846 437.508675 
L 325.93755 460.513357 
L 327.073402 461.768125 
L 328.209253 448.535375 
L 329.345105 450.3421 
L 330.480957 458.353451 
L 332.752661 439.194715 
L 333.888513 445.72945 
L 335.024365 442.888029 
L 336.160217 430.633183 
L 337.296069 430.432633 
L 339.567772 412.079646 
L 340.703624 406.27612 
L 341.839476 410.72549 
L 342.975328 409.268397 
L 344.11118 422.250903 
L 345.247032 432.94217 
L 346.382884 445.028413 
L 347.518736 453.114304 
L 348.654588 465.275088 
L 349.790439 471.559579 
L 350.926291 481.304889 
L 352.062143 488.585031 
L 353.197995 492.249949 
L 354.333847 490.973883 
L 356.605551 471.889688 
L 357.741403 476.741933 
L 358.877255 486.315089 
L 360.013107 487.795255 
L 361.148958 488.263796 
L 362.28481 475.897138 
L 363.420662 468.821096 
L 365.692366 444.664583 
L 367.96407 423.042454 
L 369.099922 410.491219 
L 370.235774 405.610578 
L 371.371626 404.02925 
L 372.507477 395.047095 
L 373.643329 401.970507 
L 374.779181 409.846975 
L 375.915033 421.924344 
L 377.050885 432.746944 
L 378.186737 441.331549 
L 379.322589 453.934252 
L 380.458441 459.60112 
L 381.594293 471.902111 
L 382.730144 476.878591 
L 383.865996 484.114364 
L 385.001848 482.854271 
L 386.1377 473.566854 
L 387.273552 463.148903 
L 388.409404 459.48221 
L 389.545256 467.758003 
L 390.681108 465.360277 
L 391.81696 460.944628 
L 392.952812 450.752074 
L 394.088663 444.000816 
L 395.224515 445.853685 
L 396.360367 445.505828 
L 397.496219 434.700975 
L 398.632071 428.581539 
L 399.767923 430.304849 
L 400.903775 428.908098 
L 402.039627 417.191009 
L 403.175479 413.36991 
L 404.311331 416.62308 
L 405.447182 409.293244 
L 406.583034 399.240897 
L 407.718886 399.468069 
L 408.854738 400.149584 
L 409.99059 390.324409 
L 411.126442 383.505709 
L 412.262294 385.967328 
L 413.398146 386.620446 
L 414.533998 378.587798 
L 416.805701 393.16228 
L 417.941553 405.189955 
L 419.077405 405.19173 
L 420.213257 397.643596 
L 422.484961 416.294746 
L 423.620813 424.041655 
L 424.756665 423.122319 
L 425.892517 426.057803 
L 427.028368 436.875079 
L 428.16422 440.268456 
L 429.300072 435.717924 
L 430.435924 444.208465 
L 431.571776 454.949425 
L 433.84348 444.785268 
L 434.979332 456.335528 
L 436.115184 460.76715 
L 437.251036 448.609916 
L 438.386887 449.570071 
L 439.522739 459.5603 
L 440.658591 450.817741 
L 441.794443 440.387366 
L 442.930295 445.115377 
L 444.066147 441.911901 
L 446.337851 421.741541 
L 447.473703 424.325619 
L 448.609554 432.260655 
L 449.745406 428.851305 
L 450.881258 432.068979 
L 452.01711 431.277427 
L 453.152962 431.556068 
L 454.288814 427.868077 
L 455.424666 420.385611 
L 456.560518 418.820256 
L 457.69637 406.552985 
L 458.832222 396.385278 
L 459.968073 383.337106 
L 461.103925 372.203919 
L 462.239777 375.419818 
L 464.511481 399.086492 
L 465.647333 401.920813 
L 466.783185 411.779709 
L 467.919037 415.245851 
L 469.054889 416.798783 
L 470.190741 414.889121 
L 471.326592 415.17841 
L 472.462444 420.900296 
L 473.598296 419.90642 
L 474.734148 425.511171 
L 475.87 414.026579 
L 477.005852 413.435577 
L 478.141704 426.299173 
L 479.277556 426.315146 
L 480.413408 416.795233 
L 481.549259 422.788661 
L 482.685111 434.901525 
L 483.820963 433.385864 
L 484.956815 444.114402 
L 486.092667 456.099482 
L 487.228519 461.514332 
L 488.364371 459.272786 
L 489.500223 466.164252 
L 490.636075 476.296463 
L 491.771927 471.532957 
L 492.907778 473.540232 
L 494.04363 486.041773 
L 495.179482 483.713264 
L 496.315334 480.49204 
L 497.451186 492.344012 
L 498.587038 487.947885 
L 499.72289 478.619649 
L 500.858742 484.726662 
L 501.994594 485.031924 
L 503.130446 473.07524 
L 504.266297 470.411297 
L 505.402149 462.103558 
L 506.538001 456.475735 
L 507.673853 453.531377 
L 508.809705 441.39899 
L 509.945557 443.975969 
L 511.081409 448.398717 
L 512.217261 438.687128 
L 513.353113 446.157172 
L 514.488964 457.510431 
L 515.624816 461.146953 
L 516.760668 470.812397 
L 517.89652 479.192902 
L 519.032372 490.232026 
L 520.168224 489.545186 
L 521.304076 480.912663 
L 522.439928 476.110112 
L 523.57578 468.492762 
L 524.711632 462.04854 
L 525.847483 451.142525 
L 526.983335 451.291607 
L 528.119187 462.852515 
L 529.255039 457.492683 
L 530.390891 446.989543 
L 531.526743 453.156899 
L 532.662595 460.48851 
L 533.798447 448.308204 
L 534.934299 443.464833 
L 536.070151 453.226115 
L 537.206002 451.911004 
L 538.341854 438.924949 
L 539.477706 437.55482 
L 540.613558 441.115026 
L 541.74941 452.226915 
L 542.885262 449.673008 
L 544.021114 455.409093 
L 545.156966 445.181044 
L 546.292818 452.509105 
L 547.428669 464.428518 
L 548.564521 474.141882 
L 549.700373 480.449446 
L 550.836225 467.591174 
L 551.972077 460.902033 
L 553.107929 462.163901 
L 554.243781 455.254687 
L 555.379633 447.369346 
L 556.515485 445.76672 
L 557.651337 440.689079 
L 559.92304 428.033132 
L 562.194744 420.573737 
L 563.330596 415.087896 
L 564.466448 405.67092 
L 565.6023 406.946986 
L 566.738152 405.181082 
L 569.009856 389.822147 
L 570.145707 390.36168 
L 571.281559 382.597023 
L 572.417411 377.189272 
L 573.553263 373.771048 
L 574.689115 378.601996 
L 575.824967 386.567203 
L 576.960819 386.934582 
L 578.096671 386.915059 
L 579.232523 385.241443 
L 580.368374 397.180379 
L 581.504226 407.406654 
L 582.640078 421.083099 
L 583.77593 430.940219 
L 584.911782 445.571495 
L 586.047634 457.684359 
L 587.183486 471.062641 
L 588.319338 470.405973 
L 589.45519 468.732357 
L 590.591042 459.208894 
L 591.726893 445.784468 
L 592.862745 450.258685 
L 593.998597 449.012791 
L 595.134449 453.536702 
L 596.270301 456.248563 
L 597.406153 447.805941 
L 598.542005 448.570871 
L 599.677857 434.805687 
L 600.813709 423.734618 
L 601.949561 413.765686 
L 603.085412 400.637648 
L 604.221264 403.649448 
L 605.357116 397.528236 
L 606.492968 401.750434 
L 607.62882 402.841923 
L 608.764672 412.633377 
L 611.036376 434.823435 
L 612.172228 448.977295 
L 613.308079 461.581773 
L 615.579783 483.715038 
L 616.715635 480.13531 
L 617.851487 468.267365 
L 618.987339 460.44769 
L 620.123191 446.496155 
L 622.394895 432.409736 
L 623.530747 443.340598 
L 624.666598 440.696178 
L 625.80245 452.461186 
L 626.938302 467.21847 
L 628.074154 474.113486 
L 629.210006 482.86137 
L 630.345858 483.98303 
L 631.48171 474.672541 
L 632.617562 464.093085 
L 633.753414 450.288857 
L 636.025117 427.600086 
L 637.160969 428.476827 
L 639.432673 436.685178 
L 640.568525 451.753049 
L 641.704377 447.624914 
L 642.840229 438.131623 
L 645.111933 456.197095 
L 646.247784 471.366128 
L 647.383636 469.960504 
L 648.519488 479.338434 
L 649.65534 481.929611 
L 650.791192 470.840794 
L 651.927044 463.191498 
L 653.062896 457.139502 
L 654.198748 444.934349 
L 655.3346 434.408137 
L 656.470452 443.232337 
L 657.606303 433.297125 
L 658.742155 429.641081 
L 659.878007 442.495803 
L 661.013859 447.679932 
L 662.149711 458.671136 
L 663.285563 472.588951 
L 664.421415 470.784001 
L 665.557267 465.956603 
L 666.693119 469.882413 
L 667.82897 470.796424 
L 668.964822 464.645041 
L 670.100674 465.947729 
L 671.236526 451.698031 
L 672.372378 446.389668 
L 673.50823 431.785014 
L 674.644082 424.263502 
L 676.915786 398.030498 
L 678.051638 402.973257 
L 681.459193 438.03046 
L 682.595045 440.690853 
L 683.730897 453.698206 
L 684.866749 452.399068 
L 686.002601 461.035142 
L 687.138453 453.297106 
L 688.274305 453.197719 
L 689.410157 448.546024 
L 690.546008 443.005165 
L 691.68186 431.160292 
L 692.817712 431.442482 
L 693.953564 433.939595 
L 695.089416 439.869131 
L 696.225268 447.443886 
L 697.36112 449.722702 
L 698.496972 454.997344 
L 699.632824 445.834162 
L 700.768675 450.457461 
L 703.040379 429.29145 
L 704.176231 434.90685 
L 705.312083 449.614441 
L 706.447935 450.963272 
L 708.719639 427.463428 
L 709.855491 411.261473 
L 710.991343 410.748562 
L 712.127194 423.223482 
L 713.263046 416.344439 
L 714.398898 401.881768 
L 715.53475 407.55751 
L 716.670602 415.551113 
L 717.806454 401.74511 
L 718.942306 392.752306 
L 720.078158 403.779006 
L 721.21401 406.286769 
L 722.349862 390.411373 
L 723.485713 384.838568 
L 724.621565 395.105663 
L 725.757417 394.921086 
L 726.893269 385.882138 
L 728.029121 394.186328 
L 729.164973 408.96136 
L 730.300825 403.878394 
L 731.436677 397.448371 
L 732.572529 411.895069 
L 733.70838 420.8719 
L 734.844232 410.842626 
L 735.980084 412.855225 
L 737.115936 429.261279 
L 738.251788 429.758217 
L 739.38764 419.30477 
L 740.523492 424.579413 
L 741.659344 439.35267 
L 742.795196 433.250981 
L 743.931048 422.67685 
L 745.066899 432.883602 
L 746.202751 441.887054 
L 747.338603 428.443106 
L 748.474455 420.161988 
L 749.610307 430.6953 
L 750.746159 435.325698 
L 751.882011 420.373187 
L 753.017863 413.912993 
L 754.153715 422.550841 
L 755.289567 422.565039 
L 756.425418 406.331138 
L 757.56127 406.897293 
L 758.697122 416.995783 
L 759.832974 407.91779 
L 760.968826 392.933334 
L 762.104678 382.174625 
L 763.24053 392.72391 
L 764.376382 387.603673 
L 765.512234 371.79572 
L 766.648085 360.241911 
L 767.783937 357.622337 
L 768.919789 373.627291 
L 770.055641 375.487259 
L 771.191493 362.337924 
L 772.327345 366.254861 
L 773.463197 382.538455 
L 774.599049 380.605721 
L 775.734901 369.685508 
L 776.870753 379.631368 
L 778.006604 392.573054 
L 779.142456 383.553629 
L 780.278308 379.533755 
L 781.41416 394.628248 
L 782.550012 399.127311 
L 783.685864 387.703061 
L 784.821716 390.429121 
L 785.957568 406.538787 
L 787.09342 402.034399 
L 788.229272 394.969005 
L 789.365123 399.411276 
L 790.500975 388.185801 
L 791.636827 393.72666 
L 792.772679 380.332405 
L 793.908531 379.721881 
L 795.044383 395.524511 
L 796.180235 393.545633 
L 797.316087 379.922431 
L 798.451939 385.47039 
L 799.58779 399.036798 
L 801.859494 378.403221 
L 802.995346 391.130159 
L 804.131198 399.139735 
L 805.26705 385.179326 
L 806.402902 383.534106 
L 807.538754 399.093591 
L 808.674606 399.079392 
L 809.810458 398.160057 
L 810.946309 406.409228 
L 812.082161 419.576311 
L 813.218013 418.50257 
L 814.353865 418.463525 
L 815.489717 430.57639 
L 816.625569 438.736822 
L 817.761421 431.836483 
L 818.897273 439.67213 
L 818.897273 439.67213 
" style="fill:none;stroke:#ff0000;stroke-linecap:square;stroke-width:2;"/>
   </g>
   <g id="line2d_20">
    <path clip-path="url(#pdf406e853d)" d="M 132.842727 112.671288 
L 176.005099 112.671288 
" style="fill:none;stroke:#00ffff;stroke-linecap:square;stroke-width:10;"/>
   </g>
   <g id="line2d_21">
    <path clip-path="url(#pdf406e853d)" d="M 263.465695 112.671288 
L 345.247032 112.671288 
" style="fill:none;stroke:#00ffff;stroke-linecap:square;stroke-width:10;"/>
   </g>
   <g id="line2d_22">
    <path clip-path="url(#pdf406e853d)" d="M 177.140951 112.671288 
L 262.329843 112.671288 
" style="fill:none;stroke:#ff00ff;stroke-linecap:square;stroke-width:10;"/>
   </g>
   <g id="line2d_23">
    <path clip-path="url(#pdf406e853d)" d="M 346.382884 112.671288 
L 390.681108 112.671288 
" style="fill:none;stroke:#008000;stroke-linecap:square;stroke-width:10;"/>
   </g>
   <g id="line2d_24">
    <path clip-path="url(#pdf406e853d)" d="M 480.413408 112.671288 
L 561.058892 112.671288 
" style="fill:none;stroke:#008000;stroke-linecap:square;stroke-width:10;"/>
   </g>
   <g id="line2d_25">
    <path clip-path="url(#pdf406e853d)" d="M 391.81696 112.671288 
L 479.277556 112.671288 
" style="fill:none;stroke:#800080;stroke-linecap:square;stroke-width:10;"/>
   </g>
   <g id="patch_3">
    <path d="M 98.54 497.631078 
L 98.54 112.671288 
" style="fill:none;stroke:#000000;stroke-linecap:square;stroke-linejoin:miter;stroke-width:0.8;"/>
   </g>
   <g id="patch_4">
    <path d="M 853.2 497.631078 
L 853.2 112.671288 
" style="fill:none;stroke:#000000;stroke-linecap:square;stroke-linejoin:miter;stroke-width:0.8;"/>
   </g>
   <g id="patch_5">
    <path d="M 98.54 497.631078 
L 853.2 497.631078 
" style="fill:none;stroke:#000000;stroke-linecap:square;stroke-linejoin:miter;stroke-width:0.8;"/>
   </g>
   <g id="patch_6">
    <path d="M 98.54 112.671288 
L 853.2 112.671288 
" style="fill:none;stroke:#000000;stroke-linecap:square;stroke-linejoin:miter;stroke-width:0.8;"/>
   </g>
   <g id="text_19">
    <!-- NBD$_{(K)}$ -->
    <defs>
     <path d="M 38.375 44.671875 
Q 42.828125 44.671875 45.109375 46.625 
Q 47.40625 48.578125 47.40625 52.390625 
Q 47.40625 56.15625 45.109375 58.125 
Q 42.828125 60.109375 38.375 60.109375 
L 27.984375 60.109375 
L 27.984375 44.671875 
z
M 39.015625 12.796875 
Q 44.671875 12.796875 47.53125 15.1875 
Q 50.390625 17.578125 50.390625 22.40625 
Q 50.390625 27.15625 47.5625 29.515625 
Q 44.734375 31.890625 39.015625 31.890625 
L 27.984375 31.890625 
L 27.984375 12.796875 
z
M 56.5 39.015625 
Q 62.546875 37.25 65.859375 32.515625 
Q 69.1875 27.78125 69.1875 20.90625 
Q 69.1875 10.359375 62.0625 5.171875 
Q 54.9375 0 40.375 0 
L 9.1875 0 
L 9.1875 72.90625 
L 37.40625 72.90625 
Q 52.59375 72.90625 59.40625 68.3125 
Q 66.21875 63.71875 66.21875 53.609375 
Q 66.21875 48.296875 63.71875 44.5625 
Q 61.234375 40.828125 56.5 39.015625 
z
" id="DejaVuSans-Bold-66"/>
     <path d="M 27.984375 58.6875 
L 27.984375 14.203125 
L 34.71875 14.203125 
Q 46.234375 14.203125 52.3125 19.921875 
Q 58.40625 25.640625 58.40625 36.53125 
Q 58.40625 47.359375 52.34375 53.015625 
Q 46.296875 58.6875 34.71875 58.6875 
z
M 9.1875 72.90625 
L 29 72.90625 
Q 45.609375 72.90625 53.734375 70.53125 
Q 61.859375 68.171875 67.671875 62.5 
Q 72.796875 57.5625 75.28125 51.109375 
Q 77.78125 44.671875 77.78125 36.53125 
Q 77.78125 28.265625 75.28125 21.796875 
Q 72.796875 15.328125 67.671875 10.40625 
Q 61.8125 4.734375 53.609375 2.359375 
Q 45.40625 0 29 0 
L 9.1875 0 
z
" id="DejaVuSans-Bold-68"/>
     <path d="M 31 75.875 
Q 24.46875 64.65625 21.28125 53.65625 
Q 18.109375 42.671875 18.109375 31.390625 
Q 18.109375 20.125 21.3125 9.0625 
Q 24.515625 -2 31 -13.1875 
L 23.1875 -13.1875 
Q 15.875 -1.703125 12.234375 9.375 
Q 8.59375 20.453125 8.59375 31.390625 
Q 8.59375 42.28125 12.203125 53.3125 
Q 15.828125 64.359375 23.1875 75.875 
z
" id="DejaVuSans-40"/>
     <path d="M 16.890625 72.90625 
L 26.8125 72.90625 
L 20.796875 42.1875 
L 59.078125 72.90625 
L 72.21875 72.90625 
L 28.90625 38.09375 
L 60.59375 0 
L 48.578125 0 
L 19.484375 35.5 
L 12.59375 0 
L 2.6875 0 
z
" id="DejaVuSans-Oblique-75"/>
     <path d="M 8.015625 75.875 
L 15.828125 75.875 
Q 23.140625 64.359375 26.78125 53.3125 
Q 30.421875 42.28125 30.421875 31.390625 
Q 30.421875 20.453125 26.78125 9.375 
Q 23.140625 -1.703125 15.828125 -13.1875 
L 8.015625 -13.1875 
Q 14.5 -2 17.703125 9.0625 
Q 20.90625 20.125 20.90625 31.390625 
Q 20.90625 42.671875 17.703125 53.65625 
Q 14.5 64.65625 8.015625 75.875 
z
" id="DejaVuSans-41"/>
    </defs>
    <g style="fill:#808080;" transform="translate(359.546273 100.120439)rotate(-45)scale(0.2 -0.2)">
     <use transform="translate(0 0.09375)" xlink:href="#DejaVuSans-Bold-78"/>
     <use transform="translate(83.691406 0.09375)" xlink:href="#DejaVuSans-Bold-66"/>
     <use transform="translate(159.912109 0.09375)" xlink:href="#DejaVuSans-Bold-68"/>
     <use transform="translate(243.876953 -16.3125)scale(0.7)" xlink:href="#DejaVuSans-40"/>
     <use transform="translate(271.186523 -16.3125)scale(0.7)" xlink:href="#DejaVuSans-Oblique-75"/>
     <use transform="translate(317.089844 -16.3125)scale(0.7)" xlink:href="#DejaVuSans-41"/>
    </g>
   </g>
   <g id="text_20">
    <!-- SBD$\beta_{(K)}$ -->
    <defs>
     <path d="M 59.90625 70.609375 
L 59.90625 55.171875 
Q 53.90625 57.859375 48.1875 59.21875 
Q 42.484375 60.59375 37.40625 60.59375 
Q 30.671875 60.59375 27.4375 58.734375 
Q 24.21875 56.890625 24.21875 52.984375 
Q 24.21875 50.046875 26.390625 48.40625 
Q 28.5625 46.78125 34.28125 45.609375 
L 42.28125 44 
Q 54.4375 41.546875 59.5625 36.5625 
Q 64.703125 31.59375 64.703125 22.40625 
Q 64.703125 10.359375 57.546875 4.46875 
Q 50.390625 -1.421875 35.6875 -1.421875 
Q 28.765625 -1.421875 21.78125 -0.09375 
Q 14.796875 1.21875 7.8125 3.8125 
L 7.8125 19.671875 
Q 14.796875 15.96875 21.3125 14.078125 
Q 27.828125 12.203125 33.890625 12.203125 
Q 40.046875 12.203125 43.3125 14.25 
Q 46.578125 16.3125 46.578125 20.125 
Q 46.578125 23.53125 44.359375 25.390625 
Q 42.140625 27.25 35.5 28.71875 
L 28.21875 30.328125 
Q 17.28125 32.671875 12.21875 37.796875 
Q 7.171875 42.921875 7.171875 51.609375 
Q 7.171875 62.5 14.203125 68.359375 
Q 21.234375 74.21875 34.421875 74.21875 
Q 40.4375 74.21875 46.78125 73.3125 
Q 53.125 72.40625 59.90625 70.609375 
z
" id="DejaVuSans-Bold-83"/>
     <path d="M 13.625 3.375 
L 8.9375 -20.796875 
L -0.09375 -20.796875 
L 14.5 54.34375 
Q 18.84375 76.609375 39.65625 76.609375 
Q 60.75 76.609375 57.171875 57.8125 
Q 54.734375 44.4375 45.21875 39.546875 
Q 58.015625 35.15625 55.515625 22.125 
Q 51.125 -1.078125 27.484375 -1.03125 
Q 17.140625 -0.984375 13.625 3.375 
z
M 15.921875 15.09375 
Q 19.671875 6.59375 29.296875 6.640625 
Q 43.359375 6.640625 46.34375 21.96875 
Q 49.03125 35.75 26.171875 34.671875 
L 27.78125 42.96875 
Q 45.453125 42.671875 48.53125 58.59375 
Q 50.640625 69.34375 39.203125 69.28125 
Q 26.421875 69.28125 23.484375 54.046875 
z
" id="DejaVuSans-Oblique-946"/>
    </defs>
    <g style="fill:#ff0000;" transform="translate(649.754192 100.120439)rotate(-45)scale(0.2 -0.2)">
     <use transform="translate(0 0.390625)" xlink:href="#DejaVuSans-Bold-83"/>
     <use transform="translate(72.021484 0.390625)" xlink:href="#DejaVuSans-Bold-66"/>
     <use transform="translate(148.242188 0.390625)" xlink:href="#DejaVuSans-Bold-68"/>
     <use transform="translate(231.25 0.390625)" xlink:href="#DejaVuSans-Oblique-946"/>
     <use transform="translate(295.068359 -16.015625)scale(0.7)" xlink:href="#DejaVuSans-40"/>
     <use transform="translate(322.37793 -16.015625)scale(0.7)" xlink:href="#DejaVuSans-Oblique-75"/>
     <use transform="translate(368.28125 -16.015625)scale(0.7)" xlink:href="#DejaVuSans-41"/>
    </g>
   </g>
   <g id="text_21">
    <!-- SBD$\alpha_{(K)}$ -->
    <defs>
     <path d="M 40.921875 25.4375 
L 40.96875 36.71875 
Q 41.015625 48.25 32.328125 48.296875 
Q 25.828125 48.34375 21.78125 42.921875 
Q 16.703125 36.234375 14.984375 27.296875 
Q 12.890625 16.546875 15.53125 11.421875 
Q 18.265625 6.203125 24.171875 6.203125 
Q 30.71875 6.203125 36.234375 16.609375 
z
M 33.84375 55.90625 
Q 49.078125 56.15625 48.875 40.375 
Q 48.875 40.375 56.5 54.6875 
L 64.5 54.6875 
L 48.734375 25.046875 
L 48.578125 14.359375 
Q 48.578125 11.96875 49.90625 9.96875 
Q 51.421875 7.625 52.984375 7.625 
L 57.328125 7.625 
L 55.859375 0 
L 50.4375 0 
Q 45.84375 0 42.53125 4.109375 
Q 40.96875 6.15625 40.921875 10.453125 
Q 37.75 5.21875 32.28125 0.78125 
Q 29.6875 -1.265625 22.703125 -1.21875 
Q 11.28125 -1.125 7.125 6.203125 
Q 2.875 13.8125 5.515625 27.296875 
Q 8.34375 41.796875 15.765625 48.390625 
Q 24.125 55.765625 33.84375 55.90625 
z
" id="DejaVuSans-Oblique-945"/>
    </defs>
    <g style="fill:#fa8072;" transform="translate(775.550909 100.120439)rotate(-45)scale(0.2 -0.2)">
     <use transform="translate(0 0.78125)" xlink:href="#DejaVuSans-Bold-83"/>
     <use transform="translate(72.021484 0.78125)" xlink:href="#DejaVuSans-Bold-66"/>
     <use transform="translate(148.242188 0.78125)" xlink:href="#DejaVuSans-Bold-68"/>
     <use transform="translate(231.25 0.78125)" xlink:href="#DejaVuSans-Oblique-945"/>
     <use transform="translate(297.167969 -15.625)scale(0.7)" xlink:href="#DejaVuSans-40"/>
     <use transform="translate(324.477539 -15.625)scale(0.7)" xlink:href="#DejaVuSans-Oblique-75"/>
     <use transform="translate(370.380859 -15.625)scale(0.7)" xlink:href="#DejaVuSans-41"/>
    </g>
   </g>
   <g id="text_22">
    <!-- IA -->
    <defs>
     <path d="M 9.8125 72.90625 
L 19.671875 72.90625 
L 19.671875 0 
L 9.8125 0 
z
" id="DejaVuSans-73"/>
     <path d="M 34.1875 63.1875 
L 20.796875 26.90625 
L 47.609375 26.90625 
z
M 28.609375 72.90625 
L 39.796875 72.90625 
L 67.578125 0 
L 57.328125 0 
L 50.6875 18.703125 
L 17.828125 18.703125 
L 11.1875 0 
L 0.78125 0 
z
" id="DejaVuSans-65"/>
    </defs>
    <g style="fill:#00ffff;" transform="translate(148.549538 112.671288)scale(0.12 -0.12)">
     <use xlink:href="#DejaVuSans-73"/>
     <use x="29.492188" xlink:href="#DejaVuSans-65"/>
    </g>
   </g>
   <g id="text_23">
    <!-- IA -->
    <g style="fill:#00ffff;" transform="translate(298.481989 112.671288)scale(0.12 -0.12)">
     <use xlink:href="#DejaVuSans-73"/>
     <use x="29.492188" xlink:href="#DejaVuSans-65"/>
    </g>
   </g>
   <g id="text_24">
    <!-- IB -->
    <defs>
     <path d="M 19.671875 34.8125 
L 19.671875 8.109375 
L 35.5 8.109375 
Q 43.453125 8.109375 47.28125 11.40625 
Q 51.125 14.703125 51.125 21.484375 
Q 51.125 28.328125 47.28125 31.5625 
Q 43.453125 34.8125 35.5 34.8125 
z
M 19.671875 64.796875 
L 19.671875 42.828125 
L 34.28125 42.828125 
Q 41.5 42.828125 45.03125 45.53125 
Q 48.578125 48.25 48.578125 53.8125 
Q 48.578125 59.328125 45.03125 62.0625 
Q 41.5 64.796875 34.28125 64.796875 
z
M 9.8125 72.90625 
L 35.015625 72.90625 
Q 46.296875 72.90625 52.390625 68.21875 
Q 58.5 63.53125 58.5 54.890625 
Q 58.5 48.1875 55.375 44.234375 
Q 52.25 40.28125 46.1875 39.3125 
Q 53.46875 37.75 57.5 32.78125 
Q 61.53125 27.828125 61.53125 20.40625 
Q 61.53125 10.640625 54.890625 5.3125 
Q 48.25 0 35.984375 0 
L 9.8125 0 
z
" id="DejaVuSans-66"/>
    </defs>
    <g style="fill:#ff00ff;" transform="translate(213.848835 112.671288)scale(0.12 -0.12)">
     <use xlink:href="#DejaVuSans-73"/>
     <use x="29.492188" xlink:href="#DejaVuSans-66"/>
    </g>
   </g>
   <g id="text_25">
    <!-- IIA -->
    <g style="fill:#008000;" transform="translate(360.887621 112.671288)scale(0.12 -0.12)">
     <use xlink:href="#DejaVuSans-73"/>
     <use x="29.492188" xlink:href="#DejaVuSans-73"/>
     <use x="58.984375" xlink:href="#DejaVuSans-65"/>
    </g>
   </g>
   <g id="text_26">
    <!-- IIA -->
    <g style="fill:#008000;" transform="translate(520.73615 112.671288)scale(0.12 -0.12)">
     <use xlink:href="#DejaVuSans-73"/>
     <use x="29.492188" xlink:href="#DejaVuSans-73"/>
     <use x="58.984375" xlink:href="#DejaVuSans-65"/>
    </g>
   </g>
   <g id="text_27">
    <!-- IIB -->
    <g style="fill:#800080;" transform="translate(427.890695 112.671288)scale(0.12 -0.12)">
     <use xlink:href="#DejaVuSans-73"/>
     <use x="29.492188" xlink:href="#DejaVuSans-73"/>
     <use x="58.984375" xlink:href="#DejaVuSans-66"/>
    </g>
   </g>
   <g id="legend_1">
    <g id="patch_7">
     <path d="M 105.54 164.705663 
L 221.825938 164.705663 
Q 223.825938 164.705663 223.825938 162.705663 
L 223.825938 119.671288 
Q 223.825938 117.671288 221.825938 117.671288 
L 105.54 117.671288 
Q 103.54 117.671288 103.54 119.671288 
L 103.54 162.705663 
Q 103.54 164.705663 105.54 164.705663 
z
" style="fill:#ffffff;opacity:0.8;stroke:#cccccc;stroke-linejoin:miter;"/>
    </g>
    <g id="line2d_26">
     <path d="M 107.54 125.769725 
L 127.54 125.769725 
" style="fill:none;stroke:#000000;stroke-linecap:square;stroke-width:2;"/>
    </g>
    <g id="line2d_27"/>
    <g id="text_28">
     <!-- Sum of B Factors -->
     <defs>
      <path d="M 53.515625 70.515625 
L 53.515625 60.890625 
Q 47.90625 63.578125 42.921875 64.890625 
Q 37.9375 66.21875 33.296875 66.21875 
Q 25.25 66.21875 20.875 63.09375 
Q 16.5 59.96875 16.5 54.203125 
Q 16.5 49.359375 19.40625 46.890625 
Q 22.3125 44.4375 30.421875 42.921875 
L 36.375 41.703125 
Q 47.40625 39.59375 52.65625 34.296875 
Q 57.90625 29 57.90625 20.125 
Q 57.90625 9.515625 50.796875 4.046875 
Q 43.703125 -1.421875 29.984375 -1.421875 
Q 24.8125 -1.421875 18.96875 -0.25 
Q 13.140625 0.921875 6.890625 3.21875 
L 6.890625 13.375 
Q 12.890625 10.015625 18.65625 8.296875 
Q 24.421875 6.59375 29.984375 6.59375 
Q 38.421875 6.59375 43.015625 9.90625 
Q 47.609375 13.234375 47.609375 19.390625 
Q 47.609375 24.75 44.3125 27.78125 
Q 41.015625 30.8125 33.5 32.328125 
L 27.484375 33.5 
Q 16.453125 35.6875 11.515625 40.375 
Q 6.59375 45.0625 6.59375 53.421875 
Q 6.59375 63.09375 13.40625 68.65625 
Q 20.21875 74.21875 32.171875 74.21875 
Q 37.3125 74.21875 42.625 73.28125 
Q 47.953125 72.359375 53.515625 70.515625 
z
" id="DejaVuSans-83"/>
      <path d="M 8.5 21.578125 
L 8.5 54.6875 
L 17.484375 54.6875 
L 17.484375 21.921875 
Q 17.484375 14.15625 20.5 10.265625 
Q 23.53125 6.390625 29.59375 6.390625 
Q 36.859375 6.390625 41.078125 11.03125 
Q 45.3125 15.671875 45.3125 23.6875 
L 45.3125 54.6875 
L 54.296875 54.6875 
L 54.296875 0 
L 45.3125 0 
L 45.3125 8.40625 
Q 42.046875 3.421875 37.71875 1 
Q 33.40625 -1.421875 27.6875 -1.421875 
Q 18.265625 -1.421875 13.375 4.4375 
Q 8.5 10.296875 8.5 21.578125 
z
M 31.109375 56 
z
" id="DejaVuSans-117"/>
      <path d="M 52 44.1875 
Q 55.375 50.25 60.0625 53.125 
Q 64.75 56 71.09375 56 
Q 79.640625 56 84.28125 50.015625 
Q 88.921875 44.046875 88.921875 33.015625 
L 88.921875 0 
L 79.890625 0 
L 79.890625 32.71875 
Q 79.890625 40.578125 77.09375 44.375 
Q 74.3125 48.1875 68.609375 48.1875 
Q 61.625 48.1875 57.5625 43.546875 
Q 53.515625 38.921875 53.515625 30.90625 
L 53.515625 0 
L 44.484375 0 
L 44.484375 32.71875 
Q 44.484375 40.625 41.703125 44.40625 
Q 38.921875 48.1875 33.109375 48.1875 
Q 26.21875 48.1875 22.15625 43.53125 
Q 18.109375 38.875 18.109375 30.90625 
L 18.109375 0 
L 9.078125 0 
L 9.078125 54.6875 
L 18.109375 54.6875 
L 18.109375 46.1875 
Q 21.1875 51.21875 25.484375 53.609375 
Q 29.78125 56 35.6875 56 
Q 41.65625 56 45.828125 52.96875 
Q 50 49.953125 52 44.1875 
z
" id="DejaVuSans-109"/>
      <path id="DejaVuSans-32"/>
      <path d="M 30.609375 48.390625 
Q 23.390625 48.390625 19.1875 42.75 
Q 14.984375 37.109375 14.984375 27.296875 
Q 14.984375 17.484375 19.15625 11.84375 
Q 23.34375 6.203125 30.609375 6.203125 
Q 37.796875 6.203125 41.984375 11.859375 
Q 46.1875 17.53125 46.1875 27.296875 
Q 46.1875 37.015625 41.984375 42.703125 
Q 37.796875 48.390625 30.609375 48.390625 
z
M 30.609375 56 
Q 42.328125 56 49.015625 48.375 
Q 55.71875 40.765625 55.71875 27.296875 
Q 55.71875 13.875 49.015625 6.21875 
Q 42.328125 -1.421875 30.609375 -1.421875 
Q 18.84375 -1.421875 12.171875 6.21875 
Q 5.515625 13.875 5.515625 27.296875 
Q 5.515625 40.765625 12.171875 48.375 
Q 18.84375 56 30.609375 56 
z
" id="DejaVuSans-111"/>
      <path d="M 37.109375 75.984375 
L 37.109375 68.5 
L 28.515625 68.5 
Q 23.6875 68.5 21.796875 66.546875 
Q 19.921875 64.59375 19.921875 59.515625 
L 19.921875 54.6875 
L 34.71875 54.6875 
L 34.71875 47.703125 
L 19.921875 47.703125 
L 19.921875 0 
L 10.890625 0 
L 10.890625 47.703125 
L 2.296875 47.703125 
L 2.296875 54.6875 
L 10.890625 54.6875 
L 10.890625 58.5 
Q 10.890625 67.625 15.140625 71.796875 
Q 19.390625 75.984375 28.609375 75.984375 
z
" id="DejaVuSans-102"/>
      <path d="M 9.8125 72.90625 
L 51.703125 72.90625 
L 51.703125 64.59375 
L 19.671875 64.59375 
L 19.671875 43.109375 
L 48.578125 43.109375 
L 48.578125 34.8125 
L 19.671875 34.8125 
L 19.671875 0 
L 9.8125 0 
z
" id="DejaVuSans-70"/>
      <path d="M 34.28125 27.484375 
Q 23.390625 27.484375 19.1875 25 
Q 14.984375 22.515625 14.984375 16.5 
Q 14.984375 11.71875 18.140625 8.90625 
Q 21.296875 6.109375 26.703125 6.109375 
Q 34.1875 6.109375 38.703125 11.40625 
Q 43.21875 16.703125 43.21875 25.484375 
L 43.21875 27.484375 
z
M 52.203125 31.203125 
L 52.203125 0 
L 43.21875 0 
L 43.21875 8.296875 
Q 40.140625 3.328125 35.546875 0.953125 
Q 30.953125 -1.421875 24.3125 -1.421875 
Q 15.921875 -1.421875 10.953125 3.296875 
Q 6 8.015625 6 15.921875 
Q 6 25.140625 12.171875 29.828125 
Q 18.359375 34.515625 30.609375 34.515625 
L 43.21875 34.515625 
L 43.21875 35.40625 
Q 43.21875 41.609375 39.140625 45 
Q 35.0625 48.390625 27.6875 48.390625 
Q 23 48.390625 18.546875 47.265625 
Q 14.109375 46.140625 10.015625 43.890625 
L 10.015625 52.203125 
Q 14.9375 54.109375 19.578125 55.046875 
Q 24.21875 56 28.609375 56 
Q 40.484375 56 46.34375 49.84375 
Q 52.203125 43.703125 52.203125 31.203125 
z
" id="DejaVuSans-97"/>
      <path d="M 48.78125 52.59375 
L 48.78125 44.1875 
Q 44.96875 46.296875 41.140625 47.34375 
Q 37.3125 48.390625 33.40625 48.390625 
Q 24.65625 48.390625 19.8125 42.84375 
Q 14.984375 37.3125 14.984375 27.296875 
Q 14.984375 17.28125 19.8125 11.734375 
Q 24.65625 6.203125 33.40625 6.203125 
Q 37.3125 6.203125 41.140625 7.25 
Q 44.96875 8.296875 48.78125 10.40625 
L 48.78125 2.09375 
Q 45.015625 0.34375 40.984375 -0.53125 
Q 36.96875 -1.421875 32.421875 -1.421875 
Q 20.0625 -1.421875 12.78125 6.34375 
Q 5.515625 14.109375 5.515625 27.296875 
Q 5.515625 40.671875 12.859375 48.328125 
Q 20.21875 56 33.015625 56 
Q 37.15625 56 41.109375 55.140625 
Q 45.0625 54.296875 48.78125 52.59375 
z
" id="DejaVuSans-99"/>
      <path d="M 18.3125 70.21875 
L 18.3125 54.6875 
L 36.8125 54.6875 
L 36.8125 47.703125 
L 18.3125 47.703125 
L 18.3125 18.015625 
Q 18.3125 11.328125 20.140625 9.421875 
Q 21.96875 7.515625 27.59375 7.515625 
L 36.8125 7.515625 
L 36.8125 0 
L 27.59375 0 
Q 17.1875 0 13.234375 3.875 
Q 9.28125 7.765625 9.28125 18.015625 
L 9.28125 47.703125 
L 2.6875 47.703125 
L 2.6875 54.6875 
L 9.28125 54.6875 
L 9.28125 70.21875 
z
" id="DejaVuSans-116"/>
      <path d="M 41.109375 46.296875 
Q 39.59375 47.171875 37.8125 47.578125 
Q 36.03125 48 33.890625 48 
Q 26.265625 48 22.1875 43.046875 
Q 18.109375 38.09375 18.109375 28.8125 
L 18.109375 0 
L 9.078125 0 
L 9.078125 54.6875 
L 18.109375 54.6875 
L 18.109375 46.1875 
Q 20.953125 51.171875 25.484375 53.578125 
Q 30.03125 56 36.53125 56 
Q 37.453125 56 38.578125 55.875 
Q 39.703125 55.765625 41.0625 55.515625 
z
" id="DejaVuSans-114"/>
      <path d="M 44.28125 53.078125 
L 44.28125 44.578125 
Q 40.484375 46.53125 36.375 47.5 
Q 32.28125 48.484375 27.875 48.484375 
Q 21.1875 48.484375 17.84375 46.4375 
Q 14.5 44.390625 14.5 40.28125 
Q 14.5 37.15625 16.890625 35.375 
Q 19.28125 33.59375 26.515625 31.984375 
L 29.59375 31.296875 
Q 39.15625 29.25 43.1875 25.515625 
Q 47.21875 21.78125 47.21875 15.09375 
Q 47.21875 7.46875 41.1875 3.015625 
Q 35.15625 -1.421875 24.609375 -1.421875 
Q 20.21875 -1.421875 15.453125 -0.5625 
Q 10.6875 0.296875 5.421875 2 
L 5.421875 11.28125 
Q 10.40625 8.6875 15.234375 7.390625 
Q 20.0625 6.109375 24.8125 6.109375 
Q 31.15625 6.109375 34.5625 8.28125 
Q 37.984375 10.453125 37.984375 14.40625 
Q 37.984375 18.0625 35.515625 20.015625 
Q 33.0625 21.96875 24.703125 23.78125 
L 21.578125 24.515625 
Q 13.234375 26.265625 9.515625 29.90625 
Q 5.8125 33.546875 5.8125 39.890625 
Q 5.8125 47.609375 11.28125 51.796875 
Q 16.75 56 26.8125 56 
Q 31.78125 56 36.171875 55.265625 
Q 40.578125 54.546875 44.28125 53.078125 
z
" id="DejaVuSans-115"/>
     </defs>
     <g transform="translate(135.54 129.269725)scale(0.1 -0.1)">
      <use xlink:href="#DejaVuSans-83"/>
      <use x="63.476562" xlink:href="#DejaVuSans-117"/>
      <use x="126.855469" xlink:href="#DejaVuSans-109"/>
      <use x="224.267578" xlink:href="#DejaVuSans-32"/>
      <use x="256.054688" xlink:href="#DejaVuSans-111"/>
      <use x="317.236328" xlink:href="#DejaVuSans-102"/>
      <use x="352.441406" xlink:href="#DejaVuSans-32"/>
      <use x="384.228516" xlink:href="#DejaVuSans-66"/>
      <use x="452.832031" xlink:href="#DejaVuSans-32"/>
      <use x="484.619141" xlink:href="#DejaVuSans-70"/>
      <use x="533.013672" xlink:href="#DejaVuSans-97"/>
      <use x="594.292969" xlink:href="#DejaVuSans-99"/>
      <use x="649.273438" xlink:href="#DejaVuSans-116"/>
      <use x="688.482422" xlink:href="#DejaVuSans-111"/>
      <use x="749.664062" xlink:href="#DejaVuSans-114"/>
      <use x="790.777344" xlink:href="#DejaVuSans-115"/>
     </g>
    </g>
    <g id="line2d_28">
     <path d="M 107.54 140.44785 
L 127.54 140.44785 
" style="fill:none;stroke:#0000ff;stroke-linecap:square;stroke-width:2;"/>
    </g>
    <g id="line2d_29"/>
    <g id="text_29">
     <!-- Mode 12 -->
     <defs>
      <path d="M 9.8125 72.90625 
L 24.515625 72.90625 
L 43.109375 23.296875 
L 61.8125 72.90625 
L 76.515625 72.90625 
L 76.515625 0 
L 66.890625 0 
L 66.890625 64.015625 
L 48.09375 14.015625 
L 38.1875 14.015625 
L 19.390625 64.015625 
L 19.390625 0 
L 9.8125 0 
z
" id="DejaVuSans-77"/>
      <path d="M 45.40625 46.390625 
L 45.40625 75.984375 
L 54.390625 75.984375 
L 54.390625 0 
L 45.40625 0 
L 45.40625 8.203125 
Q 42.578125 3.328125 38.25 0.953125 
Q 33.9375 -1.421875 27.875 -1.421875 
Q 17.96875 -1.421875 11.734375 6.484375 
Q 5.515625 14.40625 5.515625 27.296875 
Q 5.515625 40.1875 11.734375 48.09375 
Q 17.96875 56 27.875 56 
Q 33.9375 56 38.25 53.625 
Q 42.578125 51.265625 45.40625 46.390625 
z
M 14.796875 27.296875 
Q 14.796875 17.390625 18.875 11.75 
Q 22.953125 6.109375 30.078125 6.109375 
Q 37.203125 6.109375 41.296875 11.75 
Q 45.40625 17.390625 45.40625 27.296875 
Q 45.40625 37.203125 41.296875 42.84375 
Q 37.203125 48.484375 30.078125 48.484375 
Q 22.953125 48.484375 18.875 42.84375 
Q 14.796875 37.203125 14.796875 27.296875 
z
" id="DejaVuSans-100"/>
      <path d="M 56.203125 29.59375 
L 56.203125 25.203125 
L 14.890625 25.203125 
Q 15.484375 15.921875 20.484375 11.0625 
Q 25.484375 6.203125 34.421875 6.203125 
Q 39.59375 6.203125 44.453125 7.46875 
Q 49.3125 8.734375 54.109375 11.28125 
L 54.109375 2.78125 
Q 49.265625 0.734375 44.1875 -0.34375 
Q 39.109375 -1.421875 33.890625 -1.421875 
Q 20.796875 -1.421875 13.15625 6.1875 
Q 5.515625 13.8125 5.515625 26.8125 
Q 5.515625 40.234375 12.765625 48.109375 
Q 20.015625 56 32.328125 56 
Q 43.359375 56 49.78125 48.890625 
Q 56.203125 41.796875 56.203125 29.59375 
z
M 47.21875 32.234375 
Q 47.125 39.59375 43.09375 43.984375 
Q 39.0625 48.390625 32.421875 48.390625 
Q 24.90625 48.390625 20.390625 44.140625 
Q 15.875 39.890625 15.1875 32.171875 
z
" id="DejaVuSans-101"/>
      <path d="M 12.40625 8.296875 
L 28.515625 8.296875 
L 28.515625 63.921875 
L 10.984375 60.40625 
L 10.984375 69.390625 
L 28.421875 72.90625 
L 38.28125 72.90625 
L 38.28125 8.296875 
L 54.390625 8.296875 
L 54.390625 0 
L 12.40625 0 
z
" id="DejaVuSans-49"/>
      <path d="M 19.1875 8.296875 
L 53.609375 8.296875 
L 53.609375 0 
L 7.328125 0 
L 7.328125 8.296875 
Q 12.9375 14.109375 22.625 23.890625 
Q 32.328125 33.6875 34.8125 36.53125 
Q 39.546875 41.84375 41.421875 45.53125 
Q 43.3125 49.21875 43.3125 52.78125 
Q 43.3125 58.59375 39.234375 62.25 
Q 35.15625 65.921875 28.609375 65.921875 
Q 23.96875 65.921875 18.8125 64.3125 
Q 13.671875 62.703125 7.8125 59.421875 
L 7.8125 69.390625 
Q 13.765625 71.78125 18.9375 73 
Q 24.125 74.21875 28.421875 74.21875 
Q 39.75 74.21875 46.484375 68.546875 
Q 53.21875 62.890625 53.21875 53.421875 
Q 53.21875 48.921875 51.53125 44.890625 
Q 49.859375 40.875 45.40625 35.40625 
Q 44.1875 33.984375 37.640625 27.21875 
Q 31.109375 20.453125 19.1875 8.296875 
z
" id="DejaVuSans-50"/>
     </defs>
     <g transform="translate(135.54 143.94785)scale(0.1 -0.1)">
      <use xlink:href="#DejaVuSans-77"/>
      <use x="86.279297" xlink:href="#DejaVuSans-111"/>
      <use x="147.460938" xlink:href="#DejaVuSans-100"/>
      <use x="210.9375" xlink:href="#DejaVuSans-101"/>
      <use x="272.460938" xlink:href="#DejaVuSans-32"/>
      <use x="304.248047" xlink:href="#DejaVuSans-49"/>
      <use x="367.871094" xlink:href="#DejaVuSans-50"/>
     </g>
    </g>
    <g id="line2d_30">
     <path d="M 107.54 155.125975 
L 127.54 155.125975 
" style="fill:none;stroke:#ff0000;stroke-linecap:square;stroke-width:2;"/>
    </g>
    <g id="line2d_31"/>
    <g id="text_30">
     <!-- Mode 7 -->
     <defs>
      <path d="M 8.203125 72.90625 
L 55.078125 72.90625 
L 55.078125 68.703125 
L 28.609375 0 
L 18.3125 0 
L 43.21875 64.59375 
L 8.203125 64.59375 
z
" id="DejaVuSans-55"/>
     </defs>
     <g transform="translate(135.54 158.625975)scale(0.1 -0.1)">
      <use xlink:href="#DejaVuSans-77"/>
      <use x="86.279297" xlink:href="#DejaVuSans-111"/>
      <use x="147.460938" xlink:href="#DejaVuSans-100"/>
      <use x="210.9375" xlink:href="#DejaVuSans-101"/>
      <use x="272.460938" xlink:href="#DejaVuSans-32"/>
      <use x="304.248047" xlink:href="#DejaVuSans-55"/>
     </g>
    </g>
   </g>
  </g>
 </g>
 <defs>
  <clipPath id="pdf406e853d">
   <rect height="384.95979" width="754.66" x="98.54" y="112.671288"/>
  </clipPath>
 </defs>
</svg>
