<?xml version="1.0" encoding="utf-8" standalone="no"?>
<!DOCTYPE svg PUBLIC "-//W3C//DTD SVG 1.1//EN"
  "http://www.w3.org/Graphics/SVG/1.1/DTD/svg11.dtd">
<!-- Created with matplotlib (https://matplotlib.org/) -->
<svg height="576pt" version="1.1" viewBox="0 0 864 576" width="864pt" xmlns="http://www.w3.org/2000/svg" xmlns:xlink="http://www.w3.org/1999/xlink">
 <defs>
  <style type="text/css">
*{stroke-linecap:butt;stroke-linejoin:round;}
  </style>
 </defs>
 <g id="figure_1">
  <g id="patch_1">
   <path d="M 0 576 
L 864 576 
L 864 0 
L 0 0 
z
" style="fill:#ffffff;"/>
  </g>
  <g id="axes_1">
   <g id="patch_2">
    <path d="M 108 512.64 
L 777.6 512.64 
L 777.6 69.12 
L 108 69.12 
z
" style="fill:#ffffff;"/>
   </g>
   <g id="matplotlib.axis_1">
    <g id="xtick_1">
     <g id="line2d_1">
      <defs>
       <path d="M 0 0 
L 0 3.5 
" id="ma8dafe6066" style="stroke:#000000;stroke-width:0.8;"/>
      </defs>
      <g>
       <use style="stroke:#000000;stroke-width:0.8;" x="108" xlink:href="#ma8dafe6066" y="512.64"/>
      </g>
     </g>
     <g id="text_1">
      <!-- 0 -->
      <defs>
       <path d="M 46 36.53125 
Q 46 50.203125 43.4375 55.78125 
Q 40.875 61.375 34.8125 61.375 
Q 28.765625 61.375 26.171875 55.78125 
Q 23.578125 50.203125 23.578125 36.53125 
Q 23.578125 22.703125 26.171875 17.03125 
Q 28.765625 11.375 34.8125 11.375 
Q 40.828125 11.375 43.40625 17.03125 
Q 46 22.703125 46 36.53125 
z
M 64.796875 36.375 
Q 64.796875 18.265625 56.984375 8.421875 
Q 49.171875 -1.421875 34.8125 -1.421875 
Q 20.40625 -1.421875 12.59375 8.421875 
Q 4.78125 18.265625 4.78125 36.375 
Q 4.78125 54.546875 12.59375 64.375 
Q 20.40625 74.21875 34.8125 74.21875 
Q 49.171875 74.21875 56.984375 64.375 
Q 64.796875 54.546875 64.796875 36.375 
z
" id="DejaVuSans-Bold-48"/>
      </defs>
      <g transform="translate(100.346406 536.356562)scale(0.22 -0.22)">
       <use xlink:href="#DejaVuSans-Bold-48"/>
      </g>
     </g>
    </g>
    <g id="xtick_2">
     <g id="line2d_2">
      <g>
       <use style="stroke:#000000;stroke-width:0.8;" x="168.35151" xlink:href="#ma8dafe6066" y="512.64"/>
      </g>
     </g>
     <g id="text_2">
      <!-- 10 -->
      <defs>
       <path d="M 11.71875 12.984375 
L 28.328125 12.984375 
L 28.328125 60.109375 
L 11.28125 56.59375 
L 11.28125 69.390625 
L 28.21875 72.90625 
L 46.09375 72.90625 
L 46.09375 12.984375 
L 62.703125 12.984375 
L 62.703125 0 
L 11.71875 0 
z
" id="DejaVuSans-Bold-49"/>
      </defs>
      <g transform="translate(153.044322 536.356562)scale(0.22 -0.22)">
       <use xlink:href="#DejaVuSans-Bold-49"/>
       <use x="69.580078" xlink:href="#DejaVuSans-Bold-48"/>
      </g>
     </g>
    </g>
    <g id="xtick_3">
     <g id="line2d_3">
      <g>
       <use style="stroke:#000000;stroke-width:0.8;" x="228.703019" xlink:href="#ma8dafe6066" y="512.64"/>
      </g>
     </g>
     <g id="text_3">
      <!-- 20 -->
      <defs>
       <path d="M 28.8125 13.8125 
L 60.890625 13.8125 
L 60.890625 0 
L 7.90625 0 
L 7.90625 13.8125 
L 34.515625 37.3125 
Q 38.09375 40.53125 39.796875 43.609375 
Q 41.5 46.6875 41.5 50 
Q 41.5 55.125 38.0625 58.25 
Q 34.625 61.375 28.90625 61.375 
Q 24.515625 61.375 19.28125 59.5 
Q 14.0625 57.625 8.109375 53.90625 
L 8.109375 69.921875 
Q 14.453125 72.015625 20.65625 73.109375 
Q 26.859375 74.21875 32.8125 74.21875 
Q 45.90625 74.21875 53.15625 68.453125 
Q 60.40625 62.703125 60.40625 52.390625 
Q 60.40625 46.4375 57.328125 41.28125 
Q 54.25 36.140625 44.390625 27.484375 
z
" id="DejaVuSans-Bold-50"/>
      </defs>
      <g transform="translate(213.395832 536.356562)scale(0.22 -0.22)">
       <use xlink:href="#DejaVuSans-Bold-50"/>
       <use x="69.580078" xlink:href="#DejaVuSans-Bold-48"/>
      </g>
     </g>
    </g>
    <g id="xtick_4">
     <g id="line2d_4">
      <g>
       <use style="stroke:#000000;stroke-width:0.8;" x="289.054529" xlink:href="#ma8dafe6066" y="512.64"/>
      </g>
     </g>
     <g id="text_4">
      <!-- 30 -->
      <defs>
       <path d="M 46.578125 39.3125 
Q 53.953125 37.40625 57.78125 32.6875 
Q 61.625 27.984375 61.625 20.703125 
Q 61.625 9.859375 53.3125 4.21875 
Q 45.015625 -1.421875 29.109375 -1.421875 
Q 23.484375 -1.421875 17.84375 -0.515625 
Q 12.203125 0.390625 6.6875 2.203125 
L 6.6875 16.703125 
Q 11.96875 14.0625 17.15625 12.71875 
Q 22.359375 11.375 27.390625 11.375 
Q 34.859375 11.375 38.84375 13.953125 
Q 42.828125 16.546875 42.828125 21.390625 
Q 42.828125 26.375 38.75 28.9375 
Q 34.671875 31.5 26.703125 31.5 
L 19.1875 31.5 
L 19.1875 43.609375 
L 27.09375 43.609375 
Q 34.1875 43.609375 37.640625 45.828125 
Q 41.109375 48.046875 41.109375 52.59375 
Q 41.109375 56.78125 37.734375 59.078125 
Q 34.375 61.375 28.21875 61.375 
Q 23.6875 61.375 19.046875 60.34375 
Q 14.40625 59.328125 9.8125 57.328125 
L 9.8125 71.09375 
Q 15.375 72.65625 20.84375 73.4375 
Q 26.3125 74.21875 31.59375 74.21875 
Q 45.796875 74.21875 52.84375 69.546875 
Q 59.90625 64.890625 59.90625 55.515625 
Q 59.90625 49.125 56.53125 45.046875 
Q 53.171875 40.96875 46.578125 39.3125 
z
" id="DejaVuSans-Bold-51"/>
      </defs>
      <g transform="translate(273.747342 536.356562)scale(0.22 -0.22)">
       <use xlink:href="#DejaVuSans-Bold-51"/>
       <use x="69.580078" xlink:href="#DejaVuSans-Bold-48"/>
      </g>
     </g>
    </g>
    <g id="xtick_5">
     <g id="line2d_5">
      <g>
       <use style="stroke:#000000;stroke-width:0.8;" x="349.406039" xlink:href="#ma8dafe6066" y="512.64"/>
      </g>
     </g>
     <g id="text_5">
      <!-- 40 -->
      <defs>
       <path d="M 36.8125 57.421875 
L 16.21875 26.90625 
L 36.8125 26.90625 
z
M 33.6875 72.90625 
L 54.59375 72.90625 
L 54.59375 26.90625 
L 64.984375 26.90625 
L 64.984375 13.28125 
L 54.59375 13.28125 
L 54.59375 0 
L 36.8125 0 
L 36.8125 13.28125 
L 4.5 13.28125 
L 4.5 29.390625 
z
" id="DejaVuSans-Bold-52"/>
      </defs>
      <g transform="translate(334.098851 536.356562)scale(0.22 -0.22)">
       <use xlink:href="#DejaVuSans-Bold-52"/>
       <use x="69.580078" xlink:href="#DejaVuSans-Bold-48"/>
      </g>
     </g>
    </g>
    <g id="xtick_6">
     <g id="line2d_6">
      <g>
       <use style="stroke:#000000;stroke-width:0.8;" x="409.757548" xlink:href="#ma8dafe6066" y="512.64"/>
      </g>
     </g>
     <g id="text_6">
      <!-- 50 -->
      <defs>
       <path d="M 10.59375 72.90625 
L 57.328125 72.90625 
L 57.328125 59.078125 
L 25.59375 59.078125 
L 25.59375 47.796875 
Q 27.734375 48.390625 29.90625 48.703125 
Q 32.078125 49.03125 34.421875 49.03125 
Q 47.75 49.03125 55.171875 42.359375 
Q 62.59375 35.6875 62.59375 23.78125 
Q 62.59375 11.96875 54.515625 5.265625 
Q 46.4375 -1.421875 32.078125 -1.421875 
Q 25.875 -1.421875 19.796875 -0.21875 
Q 13.71875 0.984375 7.71875 3.421875 
L 7.71875 18.21875 
Q 13.671875 14.796875 19.015625 13.078125 
Q 24.359375 11.375 29.109375 11.375 
Q 35.9375 11.375 39.859375 14.71875 
Q 43.796875 18.0625 43.796875 23.78125 
Q 43.796875 29.546875 39.859375 32.859375 
Q 35.9375 36.1875 29.109375 36.1875 
Q 25.046875 36.1875 20.453125 35.125 
Q 15.875 34.078125 10.59375 31.890625 
z
" id="DejaVuSans-Bold-53"/>
      </defs>
      <g transform="translate(394.450361 536.356562)scale(0.22 -0.22)">
       <use xlink:href="#DejaVuSans-Bold-53"/>
       <use x="69.580078" xlink:href="#DejaVuSans-Bold-48"/>
      </g>
     </g>
    </g>
    <g id="xtick_7">
     <g id="line2d_7">
      <g>
       <use style="stroke:#000000;stroke-width:0.8;" x="470.109058" xlink:href="#ma8dafe6066" y="512.64"/>
      </g>
     </g>
     <g id="text_7">
      <!-- 60 -->
      <defs>
       <path d="M 36.1875 35.984375 
Q 31.25 35.984375 28.78125 32.78125 
Q 26.3125 29.59375 26.3125 23.1875 
Q 26.3125 16.796875 28.78125 13.59375 
Q 31.25 10.40625 36.1875 10.40625 
Q 41.15625 10.40625 43.625 13.59375 
Q 46.09375 16.796875 46.09375 23.1875 
Q 46.09375 29.59375 43.625 32.78125 
Q 41.15625 35.984375 36.1875 35.984375 
z
M 59.421875 71 
L 59.421875 57.515625 
Q 54.78125 59.71875 50.671875 60.765625 
Q 46.578125 61.8125 42.671875 61.8125 
Q 34.28125 61.8125 29.59375 57.140625 
Q 24.90625 52.484375 24.125 43.3125 
Q 27.34375 45.703125 31.09375 46.890625 
Q 34.859375 48.09375 39.3125 48.09375 
Q 50.484375 48.09375 57.34375 41.546875 
Q 64.203125 35.015625 64.203125 24.421875 
Q 64.203125 12.703125 56.53125 5.640625 
Q 48.875 -1.421875 35.984375 -1.421875 
Q 21.78125 -1.421875 13.984375 8.171875 
Q 6.203125 17.78125 6.203125 35.40625 
Q 6.203125 53.46875 15.3125 63.796875 
Q 24.421875 74.125 40.28125 74.125 
Q 45.3125 74.125 50.046875 73.34375 
Q 54.78125 72.5625 59.421875 71 
z
" id="DejaVuSans-Bold-54"/>
      </defs>
      <g transform="translate(454.801871 536.356562)scale(0.22 -0.22)">
       <use xlink:href="#DejaVuSans-Bold-54"/>
       <use x="69.580078" xlink:href="#DejaVuSans-Bold-48"/>
      </g>
     </g>
    </g>
    <g id="xtick_8">
     <g id="line2d_8">
      <g>
       <use style="stroke:#000000;stroke-width:0.8;" x="530.460568" xlink:href="#ma8dafe6066" y="512.64"/>
      </g>
     </g>
     <g id="text_8">
      <!-- 70 -->
      <defs>
       <path d="M 6.6875 72.90625 
L 61.625 72.90625 
L 61.625 62.3125 
L 33.203125 0 
L 14.890625 0 
L 41.796875 59.078125 
L 6.6875 59.078125 
z
" id="DejaVuSans-Bold-55"/>
      </defs>
      <g transform="translate(515.15338 536.356562)scale(0.22 -0.22)">
       <use xlink:href="#DejaVuSans-Bold-55"/>
       <use x="69.580078" xlink:href="#DejaVuSans-Bold-48"/>
      </g>
     </g>
    </g>
    <g id="xtick_9">
     <g id="line2d_9">
      <g>
       <use style="stroke:#000000;stroke-width:0.8;" x="590.812078" xlink:href="#ma8dafe6066" y="512.64"/>
      </g>
     </g>
     <g id="text_9">
      <!-- 80 -->
      <defs>
       <path d="M 34.8125 32.625 
Q 29.546875 32.625 26.703125 29.734375 
Q 23.875 26.859375 23.875 21.484375 
Q 23.875 16.109375 26.703125 13.25 
Q 29.546875 10.40625 34.8125 10.40625 
Q 40.046875 10.40625 42.828125 13.25 
Q 45.609375 16.109375 45.609375 21.484375 
Q 45.609375 26.90625 42.828125 29.765625 
Q 40.046875 32.625 34.8125 32.625 
z
M 21.09375 38.8125 
Q 14.453125 40.828125 11.078125 44.96875 
Q 7.71875 49.125 7.71875 55.328125 
Q 7.71875 64.546875 14.59375 69.375 
Q 21.484375 74.21875 34.8125 74.21875 
Q 48.046875 74.21875 54.921875 69.40625 
Q 61.8125 64.59375 61.8125 55.328125 
Q 61.8125 49.125 58.421875 44.96875 
Q 55.03125 40.828125 48.390625 38.8125 
Q 55.8125 36.765625 59.59375 32.15625 
Q 63.375 27.546875 63.375 20.515625 
Q 63.375 9.671875 56.171875 4.125 
Q 48.96875 -1.421875 34.8125 -1.421875 
Q 20.609375 -1.421875 13.359375 4.125 
Q 6.109375 9.671875 6.109375 20.515625 
Q 6.109375 27.546875 9.890625 32.15625 
Q 13.671875 36.765625 21.09375 38.8125 
z
M 25.484375 53.421875 
Q 25.484375 49.078125 27.90625 46.734375 
Q 30.328125 44.390625 34.8125 44.390625 
Q 39.203125 44.390625 41.59375 46.734375 
Q 44 49.078125 44 53.421875 
Q 44 57.765625 41.59375 60.078125 
Q 39.203125 62.40625 34.8125 62.40625 
Q 30.328125 62.40625 27.90625 60.0625 
Q 25.484375 57.71875 25.484375 53.421875 
z
" id="DejaVuSans-Bold-56"/>
      </defs>
      <g transform="translate(575.50489 536.356562)scale(0.22 -0.22)">
       <use xlink:href="#DejaVuSans-Bold-56"/>
       <use x="69.580078" xlink:href="#DejaVuSans-Bold-48"/>
      </g>
     </g>
    </g>
    <g id="xtick_10">
     <g id="line2d_10">
      <g>
       <use style="stroke:#000000;stroke-width:0.8;" x="651.163587" xlink:href="#ma8dafe6066" y="512.64"/>
      </g>
     </g>
     <g id="text_10">
      <!-- 90 -->
      <defs>
       <path d="M 10.015625 1.609375 
L 10.015625 15.09375 
Q 14.5 12.984375 18.59375 11.9375 
Q 22.703125 10.890625 26.703125 10.890625 
Q 35.109375 10.890625 39.796875 15.546875 
Q 44.484375 20.21875 45.3125 29.390625 
Q 42 26.953125 38.234375 25.734375 
Q 34.46875 24.515625 30.078125 24.515625 
Q 18.890625 24.515625 12.03125 31.03125 
Q 5.171875 37.546875 5.171875 48.1875 
Q 5.171875 59.96875 12.8125 67.046875 
Q 20.453125 74.125 33.296875 74.125 
Q 47.5625 74.125 55.375 64.5 
Q 63.1875 54.890625 63.1875 37.3125 
Q 63.1875 19.234375 54.046875 8.90625 
Q 44.921875 -1.421875 29 -1.421875 
Q 23.875 -1.421875 19.1875 -0.65625 
Q 14.5 0.09375 10.015625 1.609375 
z
M 33.203125 36.71875 
Q 38.140625 36.71875 40.625 39.90625 
Q 43.109375 43.109375 43.109375 49.515625 
Q 43.109375 55.859375 40.625 59.078125 
Q 38.140625 62.3125 33.203125 62.3125 
Q 28.265625 62.3125 25.78125 59.078125 
Q 23.296875 55.859375 23.296875 49.515625 
Q 23.296875 43.109375 25.78125 39.90625 
Q 28.265625 36.71875 33.203125 36.71875 
z
" id="DejaVuSans-Bold-57"/>
      </defs>
      <g transform="translate(635.8564 536.356562)scale(0.22 -0.22)">
       <use xlink:href="#DejaVuSans-Bold-57"/>
       <use x="69.580078" xlink:href="#DejaVuSans-Bold-48"/>
      </g>
     </g>
    </g>
    <g id="xtick_11">
     <g id="line2d_11">
      <g>
       <use style="stroke:#000000;stroke-width:0.8;" x="711.515097" xlink:href="#ma8dafe6066" y="512.64"/>
      </g>
     </g>
     <g id="text_11">
      <!-- 100 -->
      <g transform="translate(688.554316 536.356562)scale(0.22 -0.22)">
       <use xlink:href="#DejaVuSans-Bold-49"/>
       <use x="69.580078" xlink:href="#DejaVuSans-Bold-48"/>
       <use x="139.160156" xlink:href="#DejaVuSans-Bold-48"/>
      </g>
     </g>
    </g>
    <g id="text_12">
     <!-- M -->
     <defs>
      <path d="M 9.1875 72.90625 
L 33.109375 72.90625 
L 49.703125 33.890625 
L 66.40625 72.90625 
L 90.28125 72.90625 
L 90.28125 0 
L 72.515625 0 
L 72.515625 53.328125 
L 55.71875 14.015625 
L 43.796875 14.015625 
L 27 53.328125 
L 27 0 
L 9.1875 0 
z
" id="DejaVuSans-Bold-77"/>
     </defs>
     <g transform="translate(430.360547 563.927969)scale(0.25 -0.25)">
      <use xlink:href="#DejaVuSans-Bold-77"/>
     </g>
    </g>
   </g>
   <g id="matplotlib.axis_2">
    <g id="ytick_1">
     <g id="line2d_12">
      <defs>
       <path d="M 0 0 
L -3.5 0 
" id="m3b035e83d5" style="stroke:#000000;stroke-width:0.8;"/>
      </defs>
      <g>
       <use style="stroke:#000000;stroke-width:0.8;" x="108" xlink:href="#m3b035e83d5" y="492.507369"/>
      </g>
     </g>
     <g id="text_13">
      <!-- 0.0 -->
      <defs>
       <path d="M 10.203125 18.890625 
L 27.78125 18.890625 
L 27.78125 0 
L 10.203125 0 
z
" id="DejaVuSans-Bold-46"/>
      </defs>
      <g transform="translate(62.029063 500.865651)scale(0.22 -0.22)">
       <use xlink:href="#DejaVuSans-Bold-48"/>
       <use x="69.580078" xlink:href="#DejaVuSans-Bold-46"/>
       <use x="107.568359" xlink:href="#DejaVuSans-Bold-48"/>
      </g>
     </g>
    </g>
    <g id="ytick_2">
     <g id="line2d_13">
      <g>
       <use style="stroke:#000000;stroke-width:0.8;" x="108" xlink:href="#m3b035e83d5" y="416.481386"/>
      </g>
     </g>
     <g id="text_14">
      <!-- 0.1 -->
      <g transform="translate(62.029063 424.839668)scale(0.22 -0.22)">
       <use xlink:href="#DejaVuSans-Bold-48"/>
       <use x="69.580078" xlink:href="#DejaVuSans-Bold-46"/>
       <use x="107.568359" xlink:href="#DejaVuSans-Bold-49"/>
      </g>
     </g>
    </g>
    <g id="ytick_3">
     <g id="line2d_14">
      <g>
       <use style="stroke:#000000;stroke-width:0.8;" x="108" xlink:href="#m3b035e83d5" y="340.455403"/>
      </g>
     </g>
     <g id="text_15">
      <!-- 0.2 -->
      <g transform="translate(62.029063 348.813684)scale(0.22 -0.22)">
       <use xlink:href="#DejaVuSans-Bold-48"/>
       <use x="69.580078" xlink:href="#DejaVuSans-Bold-46"/>
       <use x="107.568359" xlink:href="#DejaVuSans-Bold-50"/>
      </g>
     </g>
    </g>
    <g id="ytick_4">
     <g id="line2d_15">
      <g>
       <use style="stroke:#000000;stroke-width:0.8;" x="108" xlink:href="#m3b035e83d5" y="264.42942"/>
      </g>
     </g>
     <g id="text_16">
      <!-- 0.3 -->
      <g transform="translate(62.029063 272.787701)scale(0.22 -0.22)">
       <use xlink:href="#DejaVuSans-Bold-48"/>
       <use x="69.580078" xlink:href="#DejaVuSans-Bold-46"/>
       <use x="107.568359" xlink:href="#DejaVuSans-Bold-51"/>
      </g>
     </g>
    </g>
    <g id="ytick_5">
     <g id="line2d_16">
      <g>
       <use style="stroke:#000000;stroke-width:0.8;" x="108" xlink:href="#m3b035e83d5" y="188.403437"/>
      </g>
     </g>
     <g id="text_17">
      <!-- 0.4 -->
      <g transform="translate(62.029063 196.761718)scale(0.22 -0.22)">
       <use xlink:href="#DejaVuSans-Bold-48"/>
       <use x="69.580078" xlink:href="#DejaVuSans-Bold-46"/>
       <use x="107.568359" xlink:href="#DejaVuSans-Bold-52"/>
      </g>
     </g>
    </g>
    <g id="ytick_6">
     <g id="line2d_17">
      <g>
       <use style="stroke:#000000;stroke-width:0.8;" x="108" xlink:href="#m3b035e83d5" y="112.377454"/>
      </g>
     </g>
     <g id="text_18">
      <!-- 0.5 -->
      <g transform="translate(62.029063 120.735735)scale(0.22 -0.22)">
       <use xlink:href="#DejaVuSans-Bold-48"/>
       <use x="69.580078" xlink:href="#DejaVuSans-Bold-46"/>
       <use x="107.568359" xlink:href="#DejaVuSans-Bold-53"/>
      </g>
     </g>
    </g>
    <g id="text_19">
     <!-- I$_M$ -->
     <defs>
      <path d="M 9.1875 72.90625 
L 27.984375 72.90625 
L 27.984375 0 
L 9.1875 0 
z
" id="DejaVuSans-Bold-73"/>
      <path d="M 16.3125 72.90625 
L 39.40625 72.90625 
L 48.78125 34.1875 
L 73.390625 72.90625 
L 97.40625 72.90625 
L 83.203125 0 
L 65.375 0 
L 75.78125 53.8125 
L 50.484375 14.015625 
L 40.375 14.015625 
L 30.328125 53.8125 
L 19.921875 0 
L 2.09375 0 
z
" id="DejaVuSans-BoldOblique-77"/>
     </defs>
     <g transform="translate(52.829844 304.755)rotate(-90)scale(0.25 -0.25)">
      <use transform="translate(0 0.09375)" xlink:href="#DejaVuSans-Bold-73"/>
      <use transform="translate(38.164062 -16.3125)scale(0.7)" xlink:href="#DejaVuSans-BoldOblique-77"/>
     </g>
    </g>
   </g>
   <g id="line2d_18">
    <path clip-path="url(#pf5f8fcf4e7)" d="M 150.246057 127.041346 
L 156.281208 382.314549 
L 162.316359 272.576364 
L 168.35151 334.693394 
L 174.386661 378.48436 
L 180.421812 89.28 
L 186.456963 465.255095 
L 192.492114 298.72246 
L 198.527265 483.576597 
L 204.562416 486.855598 
L 210.597566 397.17991 
L 216.632717 472.550549 
L 222.667868 350.398081 
L 228.703019 488.245353 
L 234.73817 467.279667 
L 240.773321 401.479939 
L 246.808472 409.137276 
L 252.843623 453.230826 
L 258.878774 406.487771 
L 264.913925 470.830081 
L 270.949076 478.174191 
L 276.984227 410.768794 
L 283.019378 457.7787 
L 289.054529 492.48 
L 295.08968 481.269969 
L 301.124831 470.293337 
L 307.159982 466.063252 
L 313.195133 492.097589 
L 319.230284 472.399257 
L 325.265435 477.754527 
L 331.300586 466.413731 
L 337.335737 480.987152 
L 343.370888 479.265924 
L 349.406039 468.919548 
L 355.44119 452.167983 
L 361.476341 456.1966 
L 367.511492 466.221386 
L 373.546643 390.513951 
L 379.581794 486.824427 
L 385.616945 459.341034 
L 391.652096 489.333285 
L 397.687247 483.197227 
L 403.722397 470.278892 
L 409.757548 475.891891 
L 415.792699 484.439492 
L 421.82785 452.988303 
L 427.863001 484.219777 
L 433.898152 488.896895 
L 439.933303 454.013894 
L 445.968454 479.773777 
L 452.003605 491.969866 
L 458.038756 452.339801 
L 464.073907 459.331911 
L 470.109058 479.798106 
L 476.144209 482.018825 
L 482.17936 491.557045 
L 488.214511 477.808506 
L 494.249662 468.16613 
L 500.284813 466.101265 
L 506.319964 444.224788 
L 512.355115 444.842119 
L 518.390266 474.258853 
L 524.425417 457.023762 
L 530.460568 492.325667 
L 536.495719 437.482804 
L 542.53087 467.938813 
L 548.566021 488.893854 
L 554.601172 487.487374 
L 560.636323 475.193212 
L 566.671474 488.484074 
L 572.706625 492.470877 
L 578.741776 480.588776 
L 584.776927 486.169083 
L 590.812078 489.771954 
L 596.847228 490.910063 
L 602.882379 485.653627 
L 608.91753 490.808189 
L 614.952681 489.044386 
L 620.987832 452.3953 
L 627.022983 490.803627 
L 633.058134 489.530952 
L 639.093285 485.833048 
L 645.128436 488.926546 
L 651.163587 490.632569 
L 657.198738 485.286421 
L 663.233889 489.438961 
L 669.26904 474.990983 
L 675.304191 484.40376 
L 681.339342 490.249398 
L 687.374493 490.843921 
L 693.409644 492.207067 
L 699.444795 468.86633 
L 705.479946 464.793618 
L 711.515097 478.941293 
L 717.550248 484.041876 
L 723.585399 474.539389 
L 729.62055 485.621696 
L 735.655701 437.635616 
L 741.690852 471.424604 
L 747.726003 486.692142 
" style="fill:none;stroke:#000000;stroke-linecap:square;stroke-width:3;"/>
    <defs>
     <path d="M 0 5 
C 1.326016 5 2.597899 4.473168 3.535534 3.535534 
C 4.473168 2.597899 5 1.326016 5 0 
C 5 -1.326016 4.473168 -2.597899 3.535534 -3.535534 
C 2.597899 -4.473168 1.326016 -5 0 -5 
C -1.326016 -5 -2.597899 -4.473168 -3.535534 -3.535534 
C -4.473168 -2.597899 -5 -1.326016 -5 0 
C -5 1.326016 -4.473168 2.597899 -3.535534 3.535534 
C -2.597899 4.473168 -1.326016 5 0 5 
z
" id="m3c1dfa7909" style="stroke:#000000;"/>
    </defs>
    <g clip-path="url(#pf5f8fcf4e7)">
     <use style="stroke:#000000;" x="150.246057" xlink:href="#m3c1dfa7909" y="127.041346"/>
     <use style="stroke:#000000;" x="156.281208" xlink:href="#m3c1dfa7909" y="382.314549"/>
     <use style="stroke:#000000;" x="162.316359" xlink:href="#m3c1dfa7909" y="272.576364"/>
     <use style="stroke:#000000;" x="168.35151" xlink:href="#m3c1dfa7909" y="334.693394"/>
     <use style="stroke:#000000;" x="174.386661" xlink:href="#m3c1dfa7909" y="378.48436"/>
     <use style="stroke:#000000;" x="180.421812" xlink:href="#m3c1dfa7909" y="89.28"/>
     <use style="stroke:#000000;" x="186.456963" xlink:href="#m3c1dfa7909" y="465.255095"/>
     <use style="stroke:#000000;" x="192.492114" xlink:href="#m3c1dfa7909" y="298.72246"/>
     <use style="stroke:#000000;" x="198.527265" xlink:href="#m3c1dfa7909" y="483.576597"/>
     <use style="stroke:#000000;" x="204.562416" xlink:href="#m3c1dfa7909" y="486.855598"/>
     <use style="stroke:#000000;" x="210.597566" xlink:href="#m3c1dfa7909" y="397.17991"/>
     <use style="stroke:#000000;" x="216.632717" xlink:href="#m3c1dfa7909" y="472.550549"/>
     <use style="stroke:#000000;" x="222.667868" xlink:href="#m3c1dfa7909" y="350.398081"/>
     <use style="stroke:#000000;" x="228.703019" xlink:href="#m3c1dfa7909" y="488.245353"/>
     <use style="stroke:#000000;" x="234.73817" xlink:href="#m3c1dfa7909" y="467.279667"/>
     <use style="stroke:#000000;" x="240.773321" xlink:href="#m3c1dfa7909" y="401.479939"/>
     <use style="stroke:#000000;" x="246.808472" xlink:href="#m3c1dfa7909" y="409.137276"/>
     <use style="stroke:#000000;" x="252.843623" xlink:href="#m3c1dfa7909" y="453.230826"/>
     <use style="stroke:#000000;" x="258.878774" xlink:href="#m3c1dfa7909" y="406.487771"/>
     <use style="stroke:#000000;" x="264.913925" xlink:href="#m3c1dfa7909" y="470.830081"/>
     <use style="stroke:#000000;" x="270.949076" xlink:href="#m3c1dfa7909" y="478.174191"/>
     <use style="stroke:#000000;" x="276.984227" xlink:href="#m3c1dfa7909" y="410.768794"/>
     <use style="stroke:#000000;" x="283.019378" xlink:href="#m3c1dfa7909" y="457.7787"/>
     <use style="stroke:#000000;" x="289.054529" xlink:href="#m3c1dfa7909" y="492.48"/>
     <use style="stroke:#000000;" x="295.08968" xlink:href="#m3c1dfa7909" y="481.269969"/>
     <use style="stroke:#000000;" x="301.124831" xlink:href="#m3c1dfa7909" y="470.293337"/>
     <use style="stroke:#000000;" x="307.159982" xlink:href="#m3c1dfa7909" y="466.063252"/>
     <use style="stroke:#000000;" x="313.195133" xlink:href="#m3c1dfa7909" y="492.097589"/>
     <use style="stroke:#000000;" x="319.230284" xlink:href="#m3c1dfa7909" y="472.399257"/>
     <use style="stroke:#000000;" x="325.265435" xlink:href="#m3c1dfa7909" y="477.754527"/>
     <use style="stroke:#000000;" x="331.300586" xlink:href="#m3c1dfa7909" y="466.413731"/>
     <use style="stroke:#000000;" x="337.335737" xlink:href="#m3c1dfa7909" y="480.987152"/>
     <use style="stroke:#000000;" x="343.370888" xlink:href="#m3c1dfa7909" y="479.265924"/>
     <use style="stroke:#000000;" x="349.406039" xlink:href="#m3c1dfa7909" y="468.919548"/>
     <use style="stroke:#000000;" x="355.44119" xlink:href="#m3c1dfa7909" y="452.167983"/>
     <use style="stroke:#000000;" x="361.476341" xlink:href="#m3c1dfa7909" y="456.1966"/>
     <use style="stroke:#000000;" x="367.511492" xlink:href="#m3c1dfa7909" y="466.221386"/>
     <use style="stroke:#000000;" x="373.546643" xlink:href="#m3c1dfa7909" y="390.513951"/>
     <use style="stroke:#000000;" x="379.581794" xlink:href="#m3c1dfa7909" y="486.824427"/>
     <use style="stroke:#000000;" x="385.616945" xlink:href="#m3c1dfa7909" y="459.341034"/>
     <use style="stroke:#000000;" x="391.652096" xlink:href="#m3c1dfa7909" y="489.333285"/>
     <use style="stroke:#000000;" x="397.687247" xlink:href="#m3c1dfa7909" y="483.197227"/>
     <use style="stroke:#000000;" x="403.722397" xlink:href="#m3c1dfa7909" y="470.278892"/>
     <use style="stroke:#000000;" x="409.757548" xlink:href="#m3c1dfa7909" y="475.891891"/>
     <use style="stroke:#000000;" x="415.792699" xlink:href="#m3c1dfa7909" y="484.439492"/>
     <use style="stroke:#000000;" x="421.82785" xlink:href="#m3c1dfa7909" y="452.988303"/>
     <use style="stroke:#000000;" x="427.863001" xlink:href="#m3c1dfa7909" y="484.219777"/>
     <use style="stroke:#000000;" x="433.898152" xlink:href="#m3c1dfa7909" y="488.896895"/>
     <use style="stroke:#000000;" x="439.933303" xlink:href="#m3c1dfa7909" y="454.013894"/>
     <use style="stroke:#000000;" x="445.968454" xlink:href="#m3c1dfa7909" y="479.773777"/>
     <use style="stroke:#000000;" x="452.003605" xlink:href="#m3c1dfa7909" y="491.969866"/>
     <use style="stroke:#000000;" x="458.038756" xlink:href="#m3c1dfa7909" y="452.339801"/>
     <use style="stroke:#000000;" x="464.073907" xlink:href="#m3c1dfa7909" y="459.331911"/>
     <use style="stroke:#000000;" x="470.109058" xlink:href="#m3c1dfa7909" y="479.798106"/>
     <use style="stroke:#000000;" x="476.144209" xlink:href="#m3c1dfa7909" y="482.018825"/>
     <use style="stroke:#000000;" x="482.17936" xlink:href="#m3c1dfa7909" y="491.557045"/>
     <use style="stroke:#000000;" x="488.214511" xlink:href="#m3c1dfa7909" y="477.808506"/>
     <use style="stroke:#000000;" x="494.249662" xlink:href="#m3c1dfa7909" y="468.16613"/>
     <use style="stroke:#000000;" x="500.284813" xlink:href="#m3c1dfa7909" y="466.101265"/>
     <use style="stroke:#000000;" x="506.319964" xlink:href="#m3c1dfa7909" y="444.224788"/>
     <use style="stroke:#000000;" x="512.355115" xlink:href="#m3c1dfa7909" y="444.842119"/>
     <use style="stroke:#000000;" x="518.390266" xlink:href="#m3c1dfa7909" y="474.258853"/>
     <use style="stroke:#000000;" x="524.425417" xlink:href="#m3c1dfa7909" y="457.023762"/>
     <use style="stroke:#000000;" x="530.460568" xlink:href="#m3c1dfa7909" y="492.325667"/>
     <use style="stroke:#000000;" x="536.495719" xlink:href="#m3c1dfa7909" y="437.482804"/>
     <use style="stroke:#000000;" x="542.53087" xlink:href="#m3c1dfa7909" y="467.938813"/>
     <use style="stroke:#000000;" x="548.566021" xlink:href="#m3c1dfa7909" y="488.893854"/>
     <use style="stroke:#000000;" x="554.601172" xlink:href="#m3c1dfa7909" y="487.487374"/>
     <use style="stroke:#000000;" x="560.636323" xlink:href="#m3c1dfa7909" y="475.193212"/>
     <use style="stroke:#000000;" x="566.671474" xlink:href="#m3c1dfa7909" y="488.484074"/>
     <use style="stroke:#000000;" x="572.706625" xlink:href="#m3c1dfa7909" y="492.470877"/>
     <use style="stroke:#000000;" x="578.741776" xlink:href="#m3c1dfa7909" y="480.588776"/>
     <use style="stroke:#000000;" x="584.776927" xlink:href="#m3c1dfa7909" y="486.169083"/>
     <use style="stroke:#000000;" x="590.812078" xlink:href="#m3c1dfa7909" y="489.771954"/>
     <use style="stroke:#000000;" x="596.847228" xlink:href="#m3c1dfa7909" y="490.910063"/>
     <use style="stroke:#000000;" x="602.882379" xlink:href="#m3c1dfa7909" y="485.653627"/>
     <use style="stroke:#000000;" x="608.91753" xlink:href="#m3c1dfa7909" y="490.808189"/>
     <use style="stroke:#000000;" x="614.952681" xlink:href="#m3c1dfa7909" y="489.044386"/>
     <use style="stroke:#000000;" x="620.987832" xlink:href="#m3c1dfa7909" y="452.3953"/>
     <use style="stroke:#000000;" x="627.022983" xlink:href="#m3c1dfa7909" y="490.803627"/>
     <use style="stroke:#000000;" x="633.058134" xlink:href="#m3c1dfa7909" y="489.530952"/>
     <use style="stroke:#000000;" x="639.093285" xlink:href="#m3c1dfa7909" y="485.833048"/>
     <use style="stroke:#000000;" x="645.128436" xlink:href="#m3c1dfa7909" y="488.926546"/>
     <use style="stroke:#000000;" x="651.163587" xlink:href="#m3c1dfa7909" y="490.632569"/>
     <use style="stroke:#000000;" x="657.198738" xlink:href="#m3c1dfa7909" y="485.286421"/>
     <use style="stroke:#000000;" x="663.233889" xlink:href="#m3c1dfa7909" y="489.438961"/>
     <use style="stroke:#000000;" x="669.26904" xlink:href="#m3c1dfa7909" y="474.990983"/>
     <use style="stroke:#000000;" x="675.304191" xlink:href="#m3c1dfa7909" y="484.40376"/>
     <use style="stroke:#000000;" x="681.339342" xlink:href="#m3c1dfa7909" y="490.249398"/>
     <use style="stroke:#000000;" x="687.374493" xlink:href="#m3c1dfa7909" y="490.843921"/>
     <use style="stroke:#000000;" x="693.409644" xlink:href="#m3c1dfa7909" y="492.207067"/>
     <use style="stroke:#000000;" x="699.444795" xlink:href="#m3c1dfa7909" y="468.86633"/>
     <use style="stroke:#000000;" x="705.479946" xlink:href="#m3c1dfa7909" y="464.793618"/>
     <use style="stroke:#000000;" x="711.515097" xlink:href="#m3c1dfa7909" y="478.941293"/>
     <use style="stroke:#000000;" x="717.550248" xlink:href="#m3c1dfa7909" y="484.041876"/>
     <use style="stroke:#000000;" x="723.585399" xlink:href="#m3c1dfa7909" y="474.539389"/>
     <use style="stroke:#000000;" x="729.62055" xlink:href="#m3c1dfa7909" y="485.621696"/>
     <use style="stroke:#000000;" x="735.655701" xlink:href="#m3c1dfa7909" y="437.635616"/>
     <use style="stroke:#000000;" x="741.690852" xlink:href="#m3c1dfa7909" y="471.424604"/>
     <use style="stroke:#000000;" x="747.726003" xlink:href="#m3c1dfa7909" y="486.692142"/>
    </g>
   </g>
   <g id="patch_3">
    <path d="M 108 512.64 
L 108 69.12 
" style="fill:none;stroke:#000000;stroke-linecap:square;stroke-linejoin:miter;stroke-width:3;"/>
   </g>
   <g id="patch_4">
    <path d="M 777.6 512.64 
L 777.6 69.12 
" style="fill:none;stroke:#000000;stroke-linecap:square;stroke-linejoin:miter;stroke-width:3;"/>
   </g>
   <g id="patch_5">
    <path d="M 108 512.64 
L 777.6 512.64 
" style="fill:none;stroke:#000000;stroke-linecap:square;stroke-linejoin:miter;stroke-width:3;"/>
   </g>
   <g id="patch_6">
    <path d="M 108 69.12 
L 777.6 69.12 
" style="fill:none;stroke:#000000;stroke-linecap:square;stroke-linejoin:miter;stroke-width:3;"/>
   </g>
   <g id="text_20">
    <!-- Mode=12, I$_M$=0.53 -->
    <defs>
     <path d="M 34.421875 43.5 
Q 28.609375 43.5 25.5625 39.328125 
Q 22.515625 35.15625 22.515625 27.296875 
Q 22.515625 19.4375 25.5625 15.25 
Q 28.609375 11.078125 34.421875 11.078125 
Q 40.140625 11.078125 43.15625 15.25 
Q 46.1875 19.4375 46.1875 27.296875 
Q 46.1875 35.15625 43.15625 39.328125 
Q 40.140625 43.5 34.421875 43.5 
z
M 34.421875 56 
Q 48.53125 56 56.46875 48.375 
Q 64.40625 40.765625 64.40625 27.296875 
Q 64.40625 13.8125 56.46875 6.1875 
Q 48.53125 -1.421875 34.421875 -1.421875 
Q 20.265625 -1.421875 12.28125 6.1875 
Q 4.296875 13.8125 4.296875 27.296875 
Q 4.296875 40.765625 12.28125 48.375 
Q 20.265625 56 34.421875 56 
z
" id="DejaVuSans-Bold-111"/>
     <path d="M 45.609375 46.6875 
L 45.609375 75.984375 
L 63.1875 75.984375 
L 63.1875 0 
L 45.609375 0 
L 45.609375 7.90625 
Q 42 3.078125 37.640625 0.828125 
Q 33.296875 -1.421875 27.59375 -1.421875 
Q 17.484375 -1.421875 10.984375 6.609375 
Q 4.5 14.65625 4.5 27.296875 
Q 4.5 39.9375 10.984375 47.96875 
Q 17.484375 56 27.59375 56 
Q 33.25 56 37.625 53.734375 
Q 42 51.46875 45.609375 46.6875 
z
M 34.078125 11.28125 
Q 39.703125 11.28125 42.65625 15.375 
Q 45.609375 19.484375 45.609375 27.296875 
Q 45.609375 35.109375 42.65625 39.203125 
Q 39.703125 43.3125 34.078125 43.3125 
Q 28.515625 43.3125 25.5625 39.203125 
Q 22.609375 35.109375 22.609375 27.296875 
Q 22.609375 19.484375 25.5625 15.375 
Q 28.515625 11.28125 34.078125 11.28125 
z
" id="DejaVuSans-Bold-100"/>
     <path d="M 62.984375 27.484375 
L 62.984375 22.515625 
L 22.125 22.515625 
Q 22.75 16.359375 26.5625 13.28125 
Q 30.375 10.203125 37.203125 10.203125 
Q 42.71875 10.203125 48.5 11.84375 
Q 54.296875 13.484375 60.40625 16.796875 
L 60.40625 3.328125 
Q 54.203125 0.984375 48 -0.21875 
Q 41.796875 -1.421875 35.59375 -1.421875 
Q 20.75 -1.421875 12.515625 6.125 
Q 4.296875 13.671875 4.296875 27.296875 
Q 4.296875 40.671875 12.375 48.328125 
Q 20.453125 56 34.625 56 
Q 47.515625 56 55.25 48.234375 
Q 62.984375 40.484375 62.984375 27.484375 
z
M 45.015625 33.296875 
Q 45.015625 38.28125 42.109375 41.328125 
Q 39.203125 44.390625 34.515625 44.390625 
Q 29.4375 44.390625 26.265625 41.53125 
Q 23.09375 38.671875 22.3125 33.296875 
z
" id="DejaVuSans-Bold-101"/>
     <path d="M 10.59375 48.1875 
L 73.1875 48.1875 
L 73.1875 36.71875 
L 10.59375 36.71875 
z
M 10.59375 25.984375 
L 73.1875 25.984375 
L 73.1875 14.40625 
L 10.59375 14.40625 
z
" id="DejaVuSans-Bold-61"/>
     <path d="M 10.203125 18.890625 
L 27.78125 18.890625 
L 27.78125 4 
L 15.71875 -14.203125 
L 5.328125 -14.203125 
L 10.203125 4 
z
" id="DejaVuSans-Bold-44"/>
     <path id="DejaVuSans-Bold-32"/>
    </defs>
    <g transform="translate(518.390266 109.441368)scale(0.22 -0.22)">
     <use transform="translate(0 0.015625)" xlink:href="#DejaVuSans-Bold-77"/>
     <use transform="translate(99.511719 0.015625)" xlink:href="#DejaVuSans-Bold-111"/>
     <use transform="translate(168.212891 0.015625)" xlink:href="#DejaVuSans-Bold-100"/>
     <use transform="translate(239.794922 0.015625)" xlink:href="#DejaVuSans-Bold-101"/>
     <use transform="translate(307.617188 0.015625)" xlink:href="#DejaVuSans-Bold-61"/>
     <use transform="translate(391.40625 0.015625)" xlink:href="#DejaVuSans-Bold-49"/>
     <use transform="translate(460.986328 0.015625)" xlink:href="#DejaVuSans-Bold-50"/>
     <use transform="translate(530.566406 0.015625)" xlink:href="#DejaVuSans-Bold-44"/>
     <use transform="translate(568.554688 0.015625)" xlink:href="#DejaVuSans-Bold-32"/>
     <use transform="translate(603.369141 0.015625)" xlink:href="#DejaVuSans-Bold-73"/>
     <use transform="translate(641.533203 -16.390625)scale(0.7)" xlink:href="#DejaVuSans-BoldOblique-77"/>
     <use transform="translate(713.925781 0.015625)" xlink:href="#DejaVuSans-Bold-61"/>
     <use transform="translate(797.714844 0.015625)" xlink:href="#DejaVuSans-Bold-48"/>
     <use transform="translate(867.294922 0.015625)" xlink:href="#DejaVuSans-Bold-46"/>
     <use transform="translate(905.283203 0.015625)" xlink:href="#DejaVuSans-Bold-53"/>
     <use transform="translate(974.863281 0.015625)" xlink:href="#DejaVuSans-Bold-51"/>
    </g>
   </g>
   <g id="text_21">
    <!-- Mode=7, I$_M$=0.48 -->
    <g transform="translate(518.390266 141.699558)scale(0.22 -0.22)">
     <use transform="translate(0 0.015625)" xlink:href="#DejaVuSans-Bold-77"/>
     <use transform="translate(99.511719 0.015625)" xlink:href="#DejaVuSans-Bold-111"/>
     <use transform="translate(168.212891 0.015625)" xlink:href="#DejaVuSans-Bold-100"/>
     <use transform="translate(239.794922 0.015625)" xlink:href="#DejaVuSans-Bold-101"/>
     <use transform="translate(307.617188 0.015625)" xlink:href="#DejaVuSans-Bold-61"/>
     <use transform="translate(391.40625 0.015625)" xlink:href="#DejaVuSans-Bold-55"/>
     <use transform="translate(460.986328 0.015625)" xlink:href="#DejaVuSans-Bold-44"/>
     <use transform="translate(498.974609 0.015625)" xlink:href="#DejaVuSans-Bold-32"/>
     <use transform="translate(533.789062 0.015625)" xlink:href="#DejaVuSans-Bold-73"/>
     <use transform="translate(571.953125 -16.390625)scale(0.7)" xlink:href="#DejaVuSans-BoldOblique-77"/>
     <use transform="translate(644.345703 0.015625)" xlink:href="#DejaVuSans-Bold-61"/>
     <use transform="translate(728.134766 0.015625)" xlink:href="#DejaVuSans-Bold-48"/>
     <use transform="translate(797.714844 0.015625)" xlink:href="#DejaVuSans-Bold-46"/>
     <use transform="translate(835.703125 0.015625)" xlink:href="#DejaVuSans-Bold-52"/>
     <use transform="translate(905.283203 0.015625)" xlink:href="#DejaVuSans-Bold-56"/>
    </g>
   </g>
  </g>
 </g>
 <defs>
  <clipPath id="pf5f8fcf4e7">
   <rect height="443.52" width="669.6" x="108" y="69.12"/>
  </clipPath>
 </defs>
</svg>
